# vtk DataFile Version 3.0
Laplace Solution
ASCII
DATASET STRUCTURED_POINTS
DIMENSIONS 64 64 1
ORIGIN 0 0 0
SPACING 0.015873 0.015873 1
POINT_DATA 4096
SCALARS solution double
LOOKUP_TABLE default
0
0.00897737
0.0178655
0.0265761
0.0350226
0.043121
0.0507908
0.0579559
0.064545
0.0704926
0.0757396
0.0802338
0.0839307
0.0867935
0.0887936
0.0899113
0.0901354
0.0894636
0.0879028
0.0854683
0.0821844
0.0780838
0.0732071
0.0676028
0.0613267
0.054441
0.0470144
0.0391204
0.0308377
0.0222485
0.0134382
0.00449427
-0.00449427
-0.0134382
-0.0222485
-0.0308377
-0.0391204
-0.0470144
-0.054441
-0.0613267
-0.0676028
-0.0732071
-0.0780838
-0.0821844
-0.0854683
-0.0879028
-0.0894636
-0.0901354
-0.0899113
-0.0887936
-0.0867935
-0.0839307
-0.0802338
-0.0757396
-0.0704926
-0.064545
-0.0579559
-0.0507908
-0.043121
-0.0350226
-0.0265761
-0.0178655
-0.00897737
0
0
0.018044
0.0359086
0.0534164
0.0703933
0.0866706
0.102087
0.116488
0.129731
0.141686
0.152232
0.161265
0.168696
0.17445
0.17847
0.180716
0.181167
0.179816
0.176679
0.171786
0.165186
0.156944
0.147142
0.135878
0.123263
0.109423
0.094496
0.0786297
0.0619819
0.0447181
0.0270099
0.00903322
-0.00903322
-0.0270099
-0.0447181
-0.0619819
-0.0786297
-0.094496
-0.109423
-0.123263
-0.135878
-0.147142
-0.156944
-0.165186
-0.171786
-0.176679
-0.179816
-0.181167
-0.180716
-0.17847
-0.17445
-0.168696
-0.161265
-0.152232
-0.141686
-0.129731
-0.116488
-0.102087
-0.0866706
-0.0703933
-0.0534164
-0.0359086
-0.018044
0
0
0.0270927
0.0539162
0.0802038
0.105694
0.130134
0.153281
0.174904
0.19479
0.212739
0.228574
0.242137
0.253294
0.261933
0.267969
0.271342
0.272018
0.269991
0.265281
0.257934
0.248023
0.235648
0.220931
0.204018
0.185077
0.164297
0.141884
0.118061
0.0930647
0.0671434
0.0405548
0.0135632
-0.0135632
-0.0405548
-0.0671434
-0.0930647
-0.118061
-0.141884
-0.164297
-0.185077
-0.204018
-0.220931
-0.235648
-0.248023
-0.257934
-0.265281
-0.269991
-0.272018
-0.271342
-0.267969
-0.261933
-0.253294
-0.242137
-0.228574
-0.212739
-0.19479
-0.174904
-0.153281
-0.130134
-0.105694
-0.0802038
-0.0539162
-0.0270927
0
0
0.0360183
0.0716785
0.106626
0.140515
0.173006
0.203779
0.232526
0.258962
0.282824
0.303876
0.321907
0.33674
0.348225
0.35625
0.360734
0.361633
0.358938
0.352676
0.342909
0.329733
0.313281
0.293715
0.27123
0.24605
0.218424
0.188627
0.156956
0.123724
0.0892635
0.0539154
0.0180315
-0.0180315
-0.0539154
-0.0892635
-0.123724
-0.156956
-0.188627
-0.218424
-0.24605
-0.27123
-0.293715
-0.313281
-0.329733
-0.342909
-0.352676
-0.358938
-0.361633
-0.360734
-0.35625
-0.348225
-0.33674
-0.321907
-0.303876
-0.282824
-0.258962
-0.232526
-0.203779
-0.173006
-0.140515
-0.106626
-0.0716785
-0.0360183
0
0
0.044718
0.0889915
0.132381
0.174454
0.214794
0.252999
0.288689
0.321511
0.351137
0.377273
0.39966
0.418075
0.432334
0.442297
0.447865
0.448981
0.445635
0.43786
0.425734
0.409376
0.38895
0.364658
0.336742
0.30548
0.271181
0.234187
0.194866
0.153608
0.110824
0.066938
0.0223868
-0.0223868
-0.066938
-0.110824
-0.153608
-0.194866
-0.234187
-0.271181
-0.30548
-0.336742
-0.364658
-0.38895
-0.409376
-0.425734
-0.43786
-0.445635
-0.448981
-0.447865
-0.442297
-0.432334
-0.418075
-0.39966
-0.377273
-0.351137
-0.321511
-0.288689
-0.252999
-0.214794
-0.174454
-0.132381
-0.0889915
-0.044718
0
0
0.0530928
0.105658
0.157173
0.207126
0.25502
0.30038
0.342755
0.381723
0.416898
0.447929
0.474508
0.496372
0.513302
0.525131
0.531741
0.533066
0.529094
0.519863
0.505465
0.486044
0.461793
0.432951
0.399807
0.36269
0.321968
0.278046
0.231361
0.182376
0.131579
0.0794741
0.0265794
-0.0265794
-0.0794741
-0.131579
-0.182376
-0.231361
-0.278046
-0.321968
-0.36269
-0.399807
-0.432951
-0.461793
-0.486044
-0.505465
-0.519863
-0.529094
-0.533066
-0.531741
-0.525131
-0.513302
-0.496372
-0.474508
-0.447929
-0.416898
-0.381723
-0.342755
-0.30038
-0.25502
-0.207126
-0.157173
-0.105658
-0.0530928
0
0
0.061048
0.121489
0.180723
0.238161
0.293232
0.345388
0.394112
0.438919
0.479364
0.515045
0.545607
0.570746
0.590213
0.603815
0.611415
0.612939
0.608371
0.597757
0.581202
0.558871
0.530986
0.497823
0.459713
0.417034
0.37021
0.319707
0.266027
0.209703
0.151294
0.0913822
0.030562
-0.030562
-0.0913822
-0.151294
-0.209703
-0.266027
-0.319707
-0.37021
-0.417034
-0.459713
-0.497823
-0.530986
-0.558871
-0.581202
-0.597757
-0.608371
-0.612939
-0.611415
-0.603815
-0.590213
-0.570746
-0.545607
-0.515045
-0.479364
-0.438919
-0.394112
-0.345388
-0.293232
-0.238161
-0.180723
-0.121489
-0.061048
0
0
0.0684942
0.136308
0.202766
0.26721
0.328998
0.387516
0.442183
0.492455
0.537833
0.577866
0.612156
0.640362
0.662203
0.677464
0.685991
0.687701
0.682576
0.670667
0.652093
0.627038
0.595752
0.558544
0.515786
0.467901
0.415366
0.358703
0.298475
0.235281
0.169748
0.102528
0.0342897
-0.0342897
-0.102528
-0.169748
-0.235281
-0.298475
-0.358703
-0.415366
-0.467901
-0.515786
-0.558544
-0.595752
-0.627038
-0.652093
-0.670667
-0.682576
-0.687701
-0.685991
-0.677464
-0.662203
-0.640362
-0.612156
-0.577866
-0.537833
-0.492455
-0.442183
-0.387516
-0.328998
-0.26721
-0.202766
-0.136308
-0.0684942
0
0
0.075348
0.149947
0.223056
0.293948
0.361919
0.426293
0.48643
0.541732
0.591651
0.63569
0.673411
0.704439
0.728466
0.745254
0.754634
0.756515
0.750877
0.737777
0.717344
0.689782
0.655365
0.614434
0.567397
0.514721
0.456929
0.394596
0.328342
0.258824
0.186734
0.112788
0.0377209
-0.0377209
-0.112788
-0.186734
-0.258824
-0.328342
-0.394596
-0.456929
-0.514721
-0.567397
-0.614434
-0.655365
-0.689782
-0.717344
-0.737777
-0.750877
-0.756515
-0.754634
-0.745254
-0.728466
-0.704439
-0.673411
-0.63569
-0.591651
-0.541732
-0.48643
-0.426293
-0.361919
-0.293948
-0.223056
-0.149947
-0.075348
0
0
0.0815328
0.162255
0.241365
0.318076
0.391626
0.461284
0.526357
0.586199
0.640216
0.687869
0.728686
0.762261
0.788261
0.806426
0.816577
0.818612
0.812511
0.798336
0.776226
0.746402
0.709159
0.664869
0.613971
0.556971
0.494435
0.426986
0.355293
0.280069
0.202061
0.122046
0.0408171
-0.0408171
-0.122046
-0.202061
-0.280069
-0.355293
-0.426986
-0.494435
-0.556971
-0.613971
-0.664869
-0.709159
-0.746402
-0.776226
-0.798336
-0.812511
-0.818612
-0.816577
-0.806426
-0.788261
-0.762261
-0.728686
-0.687869
-0.640216
-0.586199
-0.526357
-0.461284
-0.391626
-0.318076
-0.241365
-0.162255
-0.0815328
0
0
0.0869793
0.173094
0.257489
0.339324
0.417788
0.492099
0.561519
0.625359
0.682983
0.73382
0.777364
0.813182
0.840918
0.860297
0.871126
0.873297
0.866789
0.851666
0.828079
0.796263
0.756532
0.709283
0.654985
0.594177
0.527464
0.455509
0.379027
0.298778
0.215559
0.130199
0.0435438
-0.0435438
-0.130199
-0.215559
-0.298778
-0.379027
-0.455509
-0.527464
-0.594177
-0.654985
-0.709283
-0.756532
-0.796263
-0.828079
-0.851666
-0.866789
-0.873297
-0.871126
-0.860297
-0.840918
-0.813182
-0.777364
-0.73382
-0.682983
-0.625359
-0.561519
-0.492099
-0.417788
-0.339324
-0.257489
-0.173094
-0.0869793
0
0
0.0916265
0.182342
0.271246
0.357454
0.440109
0.518391
0.59152
0.658771
0.719474
0.773027
0.818898
0.856629
0.885847
0.906262
0.917669
0.919956
0.9131
0.89717
0.872323
0.838806
0.796953
0.74718
0.68998
0.625924
0.555646
0.479847
0.399278
0.314741
0.227077
0.137155
0.0458703
-0.0458703
-0.137155
-0.227077
-0.314741
-0.399278
-0.479847
-0.555646
-0.625924
-0.68998
-0.74718
-0.796953
-0.838806
-0.872323
-0.89717
-0.9131
-0.919956
-0.917669
-0.906262
-0.885847
-0.856629
-0.818898
-0.773027
-0.719474
-0.658771
-0.59152
-0.518391
-0.440109
-0.357454
-0.271246
-0.182342
-0.0916265
0
0
0.0954219
0.189895
0.282482
0.37226
0.45834
0.539863
0.616022
0.686058
0.749276
0.805047
0.852818
0.892112
0.922541
0.9438
0.95568
0.958062
0.950922
0.934332
0.908456
0.873551
0.829964
0.778129
0.71856
0.65185
0.578662
0.499723
0.415817
0.327778
0.236482
0.142836
0.0477703
-0.0477703
-0.142836
-0.236482
-0.327778
-0.415817
-0.499723
-0.578662
-0.65185
-0.71856
-0.778129
-0.829964
-0.873551
-0.908456
-0.934332
-0.950922
-0.958062
-0.95568
-0.9438
-0.922541
-0.892112
-0.852818
-0.805047
-0.749276
-0.686058
-0.616022
-0.539863
-0.45834
-0.37226
-0.282482
-0.189895
-0.0954219
0
0
0.0983218
0.195666
0.291066
0.383574
0.472269
0.55627
0.634743
0.706908
0.772047
0.829513
0.878735
0.919224
0.950577
0.972483
0.984724
0.987178
0.979822
0.962727
0.936064
0.900099
0.855187
0.801777
0.740398
0.671661
0.596248
0.51491
0.428454
0.33774
0.243669
0.147177
0.0492221
-0.0492221
-0.147177
-0.243669
-0.33774
-0.428454
-0.51491
-0.596248
-0.671661
-0.740398
-0.801777
-0.855187
-0.900099
-0.936064
-0.962727
-0.979822
-0.987178
-0.984724
-0.972483
-0.950577
-0.919224
-0.878735
-0.829513
-0.772047
-0.706908
-0.634743
-0.55627
-0.472269
-0.383574
-0.291066
-0.195666
-0.0983218
0
0
0.100292
0.199588
0.2969
0.391261
0.481734
0.567419
0.647464
0.721075
0.78752
0.846138
0.896346
0.937647
0.969628
0.991973
1.00446
1.00696
0.999459
0.982021
0.954824
0.918138
0.872326
0.817845
0.755236
0.685122
0.608198
0.525229
0.437041
0.344509
0.248553
0.150127
0.0502086
-0.0502086
-0.150127
-0.248553
-0.344509
-0.437041
-0.525229
-0.608198
-0.685122
-0.755236
-0.817845
-0.872326
-0.918138
-0.954824
-0.982021
-0.999459
-1.00696
-1.00446
-0.991973
-0.969628
-0.937647
-0.896346
-0.846138
-0.78752
-0.721075
-0.647464
-0.567419
-0.481734
-0.391261
-0.2969
-0.199588
-0.100292
0
0
0.101309
0.201611
0.299909
0.395227
0.486617
0.573171
0.654028
0.728385
0.795503
0.854715
0.905433
0.947152
0.979457
1.00203
1.01464
1.01717
1.00959
0.991976
0.964504
0.927445
0.881169
0.826136
0.762892
0.692067
0.614363
0.530553
0.441471
0.348001
0.251072
0.151649
0.0507175
-0.0507175
-0.151649
-0.251072
-0.348001
-0.441471
-0.530553
-0.614363
-0.692067
-0.762892
-0.826136
-0.881169
-0.927445
-0.964504
-0.991976
-1.00959
-1.01717
-1.01464
-1.00203
-0.979457
-0.947152
-0.905433
-0.854715
-0.795503
-0.728385
-0.654028
-0.573171
-0.486617
-0.395227
-0.299909
-0.201611
-0.101309
0
0
0.101357
0.201707
0.300053
0.395416
0.48685
0.573445
0.654341
0.728733
0.795884
0.855124
0.905866
0.947605
0.979926
1.00251
1.01513
1.01766
1.01007
0.992451
0.964965
0.927889
0.881591
0.826531
0.763257
0.692398
0.614657
0.530807
0.441682
0.348167
0.251192
0.151721
0.0507418
-0.0507418
-0.151721
-0.251192
-0.348167
-0.441682
-0.530807
-0.614657
-0.692398
-0.763257
-0.826531
-0.881591
-0.927889
-0.964965
-0.992451
-1.01007
-1.01766
-1.01513
-1.00251
-0.979926
-0.947605
-0.905866
-0.855124
-0.795884
-0.728733
-0.654341
-0.573445
-0.48685
-0.395416
-0.300053
-0.201707
-0.101357
0
0
0.100433
0.199868
0.297317
0.391811
0.48241
0.568216
0.648374
0.722088
0.788626
0.847326
0.897605
0.938964
0.97099
0.993366
1.00587
1.00838
1.00086
0.983401
0.956165
0.919427
0.873552
0.818994
0.756297
0.686084
0.609052
0.525967
0.437654
0.344992
0.248902
0.150338
0.0502791
-0.0502791
-0.150338
-0.248902
-0.344992
-0.437654
-0.525967
-0.609052
-0.686084
-0.756297
-0.818994
-0.873552
-0.919427
-0.956165
-0.983401
-1.00086
-1.00838
-1.00587
-0.993366
-0.97099
-0.938964
-0.897605
-0.847326
-0.788626
-0.722088
-0.648374
-0.568216
-0.48241
-0.391811
-0.297317
-0.199868
-0.100433
0
0
0.0985418
0.196104
0.291718
0.384432
0.473325
0.557515
0.636163
0.70849
0.773774
0.831369
0.880701
0.921281
0.952704
0.974659
0.986927
0.989387
0.982014
0.964881
0.938159
0.902113
0.857101
0.803571
0.742054
0.673163
0.597582
0.516062
0.429412
0.338496
0.244214
0.147506
0.0493322
-0.0493322
-0.147506
-0.244214
-0.338496
-0.429412
-0.516062
-0.597582
-0.673163
-0.742054
-0.803571
-0.857101
-0.902113
-0.938159
-0.964881
-0.982014
-0.989387
-0.986927
-0.974659
-0.952704
-0.921281
-0.880701
-0.831369
-0.773774
-0.70849
-0.636163
-0.557515
-0.473325
-0.384432
-0.291718
-0.196104
-0.0985418
0
0
0.0956988
0.190446
0.283301
0.373341
0.45967
0.54143
0.61781
0.688049
0.75145
0.807384
0.855292
0.894701
0.925218
0.946539
0.958454
0.960842
0.953682
0.937043
0.911092
0.876086
0.832373
0.780387
0.720646
0.653742
0.580341
0.501173
0.417024
0.32873
0.237169
0.143251
0.0479089
-0.0479089
-0.143251
-0.237169
-0.32873
-0.417024
-0.501173
-0.580341
-0.653742
-0.720646
-0.780387
-0.832373
-0.876086
-0.911092
-0.937043
-0.953682
-0.960842
-0.958454
-0.946539
-0.925218
-0.894701
-0.855292
-0.807384
-0.75145
-0.688049
-0.61781
-0.54143
-0.45967
-0.373341
-0.283301
-0.190446
-0.0956988
0
0
0.0919293
0.182945
0.272143
0.358635
0.441564
0.520104
0.593475
0.660948
0.721852
0.775582
0.821604
0.85946
0.888775
0.909257
0.920702
0.922996
0.916118
0.900135
0.875206
0.841578
0.799587
0.749649
0.692261
0.627992
0.557483
0.481432
0.400598
0.315782
0.227827
0.137608
0.0460219
-0.0460219
-0.137608
-0.227827
-0.315782
-0.400598
-0.481432
-0.557483
-0.627992
-0.692261
-0.749649
-0.799587
-0.841578
-0.875206
-0.900135
-0.916118
-0.922996
-0.920702
-0.909257
-0.888775
-0.85946
-0.821604
-0.775582
-0.721852
-0.660948
-0.593475
-0.520104
-0.441564
-0.358635
-0.272143
-0.182945
-0.0919293
0
0
0.0872682
0.173669
0.258344
0.340451
0.419175
0.493733
0.563384
0.627435
0.685251
0.736257
0.779946
0.815882
0.843711
0.863154
0.874019
0.876197
0.869667
0.854495
0.830829
0.798907
0.759045
0.711639
0.65716
0.596151
0.529216
0.457022
0.380286
0.29977
0.216275
0.130631
0.0436884
-0.0436884
-0.130631
-0.216275
-0.29977
-0.380286
-0.457022
-0.529216
-0.596151
-0.65716
-0.711639
-0.759045
-0.798907
-0.830829
-0.854495
-0.869667
-0.876197
-0.874019
-0.863154
-0.843711
-0.815882
-0.779946
-0.736257
-0.685251
-0.627435
-0.563384
-0.493733
-0.419175
-0.340451
-0.258344
-0.173669
-0.0872682
0
0
0.081759
0.162706
0.242035
0.318959
0.392713
0.462564
0.527818
0.587826
0.641992
0.689778
0.730708
0.764377
0.790448
0.808664
0.818843
0.820884
0.814766
0.800551
0.77838
0.748473
0.711127
0.666714
0.615675
0.558516
0.495807
0.428171
0.356279
0.280846
0.202622
0.122384
0.0409304
-0.0409304
-0.122384
-0.202622
-0.280846
-0.356279
-0.428171
-0.495807
-0.558516
-0.615675
-0.666714
-0.711127
-0.748473
-0.77838
-0.800551
-0.814766
-0.820884
-0.818843
-0.808664
-0.790448
-0.764377
-0.730708
-0.689778
-0.641992
-0.587826
-0.527818
-0.462564
-0.392713
-0.318959
-0.242035
-0.162706
-0.081759
0
0
0.0754543
0.150159
0.223371
0.294363
0.362429
0.426894
0.487116
0.542497
0.592486
0.636587
0.674361
0.705433
0.729494
0.746305
0.755699
0.757582
0.751937
0.738818
0.718356
0.690756
0.65629
0.615301
0.568198
0.515447
0.457574
0.395153
0.328805
0.259189
0.186997
0.112947
0.0377741
-0.0377741
-0.112947
-0.186997
-0.259189
-0.328805
-0.395153
-0.457574
-0.515447
-0.568198
-0.615301
-0.65629
-0.690756
-0.718356
-0.738818
-0.751937
-0.757582
-0.755699
-0.746305
-0.729494
-0.705433
-0.674361
-0.636587
-0.592486
-0.542497
-0.487116
-0.426894
-0.362429
-0.294363
-0.223371
-0.150159
-0.0754543
0
0
0.0684144
0.136149
0.20253
0.266899
0.328615
0.387065
0.441668
0.491882
0.537207
0.577193
0.611443
0.639616
0.661432
0.676675
0.685192
0.6869
0.681781
0.669886
0.651334
0.626308
0.595058
0.557894
0.515185
0.467356
0.414882
0.358285
0.298127
0.235007
0.16955
0.102409
0.0342498
-0.0342498
-0.102409
-0.16955
-0.235007
-0.298127
-0.358285
-0.414882
-0.467356
-0.515185
-0.557894
-0.595058
-0.626308
-0.651334
-0.669886
-0.681781
-0.6869
-0.685192
-0.676675
-0.661432
-0.639616
-0.611443
-0.577193
-0.537207
-0.491882
-0.441668
-0.387065
-0.328615
-0.266899
-0.20253
-0.136149
-0.0684144
0
0
0.0607073
0.120811
0.179714
0.236832
0.291595
0.343461
0.391913
0.43647
0.476689
0.51217
0.542562
0.567561
0.586919
0.600445
0.608003
0.609518
0.604976
0.594421
0.577959
0.555752
0.528022
0.495045
0.457147
0.414707
0.368144
0.317923
0.264542
0.208532
0.15045
0.0908722
0.0303914
-0.0303914
-0.0908722
-0.15045
-0.208532
-0.264542
-0.317923
-0.368144
-0.414707
-0.457147
-0.495045
-0.528022
-0.555752
-0.577959
-0.594421
-0.604976
-0.609518
-0.608003
-0.600445
-0.586919
-0.567561
-0.542562
-0.51217
-0.476689
-0.43647
-0.391913
-0.343461
-0.291595
-0.236832
-0.179714
-0.120811
-0.0607073
0
0
0.0524076
0.104294
0.155144
0.204453
0.251729
0.296504
0.338331
0.376797
0.411517
0.442148
0.468384
0.489966
0.506677
0.518354
0.524878
0.526187
0.522265
0.513153
0.498942
0.479771
0.455833
0.427364
0.394647
0.358009
0.317813
0.274458
0.228375
0.180022
0.129881
0.0784484
0.0262364
-0.0262364
-0.0784484
-0.129881
-0.180022
-0.228375
-0.274458
-0.317813
-0.358009
-0.394647
-0.427364
-0.455833
-0.479771
-0.498942
-0.513153
-0.522265
-0.526187
-0.524878
-0.518354
-0.506677
-0.489966
-0.468384
-0.442148
-0.411517
-0.376797
-0.338331
-0.296504
-0.251729
-0.204453
-0.155144
-0.104294
-0.0524076
0
0
0.0435959
0.0867585
0.129059
0.170077
0.209404
0.24665
0.281445
0.313443
0.342326
0.367806
0.389631
0.407584
0.421486
0.431199
0.436627
0.437715
0.434453
0.426873
0.415051
0.399104
0.37919
0.355508
0.328293
0.297814
0.264376
0.228311
0.189977
0.149754
0.108043
0.0652583
0.0218251
-0.0218251
-0.0652583
-0.108043
-0.149754
-0.189977
-0.228311
-0.264376
-0.297814
-0.328293
-0.355508
-0.37919
-0.399104
-0.415051
-0.426873
-0.434453
-0.437715
-0.436627
-0.431199
-0.421486
-0.407584
-0.389631
-0.367806
-0.342326
-0.313443
-0.281445
-0.24665
-0.209404
-0.170077
-0.129059
-0.0867585
-0.0435959
0
0
0.0343582
0.0683748
0.101712
0.134038
0.165032
0.194386
0.221809
0.247026
0.269789
0.28987
0.307071
0.321219
0.332175
0.33983
0.344108
0.344966
0.342395
0.336421
0.327104
0.314536
0.298842
0.280178
0.258729
0.234709
0.208356
0.179933
0.149721
0.118022
0.0851493
0.0514304
0.0172005
-0.0172005
-0.0514304
-0.0851493
-0.118022
-0.149721
-0.179933
-0.208356
-0.234709
-0.258729
-0.280178
-0.298842
-0.314536
-0.327104
-0.336421
-0.342395
-0.344966
-0.344108
-0.33983
-0.332175
-0.321219
-0.307071
-0.28987
-0.269789
-0.247026
-0.221809
-0.194386
-0.165032
-0.134038
-0.101712
-0.0683748
-0.0343582
0
0
0.0247845
0.0493226
0.0733705
0.0966893
0.119047
0.140222
0.160003
0.178194
0.194614
0.209099
0.221507
0.231713
0.239617
0.245139
0.248224
0.248843
0.246988
0.242679
0.235958
0.226892
0.215571
0.202108
0.186636
0.169309
0.150299
0.129796
0.108002
0.0851357
0.0614229
0.0370996
0.0124076
-0.0124076
-0.0370996
-0.0614229
-0.0851357
-0.108002
-0.129796
-0.150299
-0.169309
-0.186636
-0.202108
-0.215571
-0.226892
-0.235958
-0.242679
-0.246988
-0.248843
-0.248224
-0.245139
-0.239617
-0.231713
-0.221507
-0.209099
-0.194614
-0.178194
-0.160003
-0.140222
-0.119047
-0.0966893
-0.0733705
-0.0493226
-0.0247845
0
0
0.0149683
0.0297879
0.0443114
0.0583946
0.0718973
0.0846856
0.0966322
0.107618
0.117535
0.126284
0.133777
0.139941
0.144714
0.148049
0.149913
0.150286
0.149166
0.146564
0.142505
0.137029
0.130192
0.122061
0.112717
0.102252
0.0907717
0.0783889
0.065227
0.0514169
0.0370958
0.022406
0.00749348
-0.00749348
-0.022406
-0.0370958
-0.0514169
-0.065227
-0.0783889
-0.0907717
-0.102252
-0.112717
-0.122061
-0.130192
-0.137029
-0.142505
-0.146564
-0.149166
-0.150286
-0.149913
-0.148049
-0.144714
-0.139941
-0.133777
-0.126284
-0.117535
-0.107618
-0.0966322
-0.0846856
-0.0718973
-0.0583946
-0.0443114
-0.0297879
-0.0149683
0
0
0.00500577
0.00996179
0.0148188
0.0195285
0.0240442
0.0283209
0.0323161
0.0359902
0.0393065
0.0422323
0.0447383
0.0467996
0.0483959
0.0495112
0.0501344
0.0502593
0.0498848
0.0490145
0.047657
0.0458259
0.0435394
0.0408201
0.0376952
0.0341957
0.0303562
0.0262151
0.0218135
0.017195
0.0124057
0.00749309
0.002506
-0.002506
-0.00749309
-0.0124057
-0.017195
-0.0218135
-0.0262151
-0.0303562
-0.0341957
-0.0376952
-0.0408201
-0.0435394
-0.0458259
-0.047657
-0.0490145
-0.0498848
-0.0502593
-0.0501344
-0.0495112
-0.0483959
-0.0467996
-0.0447383
-0.0422323
-0.0393065
-0.0359902
-0.0323161
-0.0283209
-0.0240442
-0.0195285
-0.0148188
-0.00996179
-0.00500577
0
0
-0.00500577
-0.00996179
-0.0148188
-0.0195285
-0.0240442
-0.0283209
-0.0323161
-0.0359902
-0.0393065
-0.0422323
-0.0447383
-0.0467996
-0.0483959
-0.0495112
-0.0501344
-0.0502593
-0.0498848
-0.0490145
-0.047657
-0.0458259
-0.0435394
-0.0408201
-0.0376952
-0.0341957
-0.0303562
-0.0262151
-0.0218135
-0.017195
-0.0124057
-0.00749309
-0.002506
0.002506
0.00749309
0.0124057
0.017195
0.0218135
0.0262151
0.0303562
0.0341957
0.0376952
0.0408201
0.0435394
0.0458259
0.047657
0.0490145
0.0498848
0.0502593
0.0501344
0.0495112
0.0483959
0.0467996
0.0447383
0.0422323
0.0393065
0.0359902
0.0323161
0.0283209
0.0240442
0.0195285
0.0148188
0.00996179
0.00500577
0
0
-0.0149683
-0.0297879
-0.0443114
-0.0583946
-0.0718973
-0.0846856
-0.0966322
-0.107618
-0.117535
-0.126284
-0.133777
-0.139941
-0.144714
-0.148049
-0.149913
-0.150286
-0.149166
-0.146564
-0.142505
-0.137029
-0.130192
-0.122061
-0.112717
-0.102252
-0.0907717
-0.0783889
-0.065227
-0.0514169
-0.0370958
-0.022406
-0.00749348
0.00749348
0.022406
0.0370958
0.0514169
0.065227
0.0783889
0.0907717
0.102252
0.112717
0.122061
0.130192
0.137029
0.142505
0.146564
0.149166
0.150286
0.149913
0.148049
0.144714
0.139941
0.133777
0.126284
0.117535
0.107618
0.0966322
0.0846856
0.0718973
0.0583946
0.0443114
0.0297879
0.0149683
0
0
-0.0247845
-0.0493226
-0.0733705
-0.0966893
-0.119047
-0.140222
-0.160003
-0.178194
-0.194614
-0.209099
-0.221507
-0.231713
-0.239617
-0.245139
-0.248224
-0.248843
-0.246988
-0.242679
-0.235958
-0.226892
-0.215571
-0.202108
-0.186636
-0.169309
-0.150299
-0.129796
-0.108002
-0.0851357
-0.0614229
-0.0370996
-0.0124076
0.0124076
0.0370996
0.0614229
0.0851357
0.108002
0.129796
0.150299
0.169309
0.186636
0.202108
0.215571
0.226892
0.235958
0.242679
0.246988
0.248843
0.248224
0.245139
0.239617
0.231713
0.221507
0.209099
0.194614
0.178194
0.160003
0.140222
0.119047
0.0966893
0.0733705
0.0493226
0.0247845
0
0
-0.0343582
-0.0683748
-0.101712
-0.134038
-0.165032
-0.194386
-0.221809
-0.247026
-0.269789
-0.28987
-0.307071
-0.321219
-0.332175
-0.33983
-0.344108
-0.344966
-0.342395
-0.336421
-0.327104
-0.314536
-0.298842
-0.280178
-0.258729
-0.234709
-0.208356
-0.179933
-0.149721
-0.118022
-0.0851493
-0.0514304
-0.0172005
0.0172005
0.0514304
0.0851493
0.118022
0.149721
0.179933
0.208356
0.234709
0.258729
0.280178
0.298842
0.314536
0.327104
0.336421
0.342395
0.344966
0.344108
0.33983
0.332175
0.321219
0.307071
0.28987
0.269789
0.247026
0.221809
0.194386
0.165032
0.134038
0.101712
0.0683748
0.0343582
0
0
-0.0435959
-0.0867585
-0.129059
-0.170077
-0.209404
-0.24665
-0.281445
-0.313443
-0.342326
-0.367806
-0.389631
-0.407584
-0.421486
-0.431199
-0.436627
-0.437715
-0.434453
-0.426873
-0.415051
-0.399104
-0.37919
-0.355508
-0.328293
-0.297814
-0.264376
-0.228311
-0.189977
-0.149754
-0.108043
-0.0652583
-0.0218251
0.0218251
0.0652583
0.108043
0.149754
0.189977
0.228311
0.264376
0.297814
0.328293
0.355508
0.37919
0.399104
0.415051
0.426873
0.434453
0.437715
0.436627
0.431199
0.421486
0.407584
0.389631
0.367806
0.342326
0.313443
0.281445
0.24665
0.209404
0.170077
0.129059
0.0867585
0.0435959
0
0
-0.0524076
-0.104294
-0.155144
-0.204453
-0.251729
-0.296504
-0.338331
-0.376797
-0.411517
-0.442148
-0.468384
-0.489966
-0.506677
-0.518354
-0.524878
-0.526187
-0.522265
-0.513153
-0.498942
-0.479771
-0.455833
-0.427364
-0.394647
-0.358009
-0.317813
-0.274458
-0.228375
-0.180022
-0.129881
-0.0784484
-0.0262364
0.0262364
0.0784484
0.129881
0.180022
0.228375
0.274458
0.317813
0.358009
0.394647
0.427364
0.455833
0.479771
0.498942
0.513153
0.522265
0.526187
0.524878
0.518354
0.506677
0.489966
0.468384
0.442148
0.411517
0.376797
0.338331
0.296504
0.251729
0.204453
0.155144
0.104294
0.0524076
0
0
-0.0607073
-0.120811
-0.179714
-0.236832
-0.291595
-0.343461
-0.391913
-0.43647
-0.476689
-0.51217
-0.542562
-0.567561
-0.586919
-0.600445
-0.608003
-0.609518
-0.604976
-0.594421
-0.577959
-0.555752
-0.528022
-0.495045
-0.457147
-0.414707
-0.368144
-0.317923
-0.264542
-0.208532
-0.15045
-0.0908722
-0.0303914
0.0303914
0.0908722
0.15045
0.208532
0.264542
0.317923
0.368144
0.414707
0.457147
0.495045
0.528022
0.555752
0.577959
0.594421
0.604976
0.609518
0.608003
0.600445
0.586919
0.567561
0.542562
0.51217
0.476689
0.43647
0.391913
0.343461
0.291595
0.236832
0.179714
0.120811
0.0607073
0
0
-0.0684144
-0.136149
-0.20253
-0.266899
-0.328615
-0.387065
-0.441668
-0.491882
-0.537207
-0.577193
-0.611443
-0.639616
-0.661432
-0.676675
-0.685192
-0.6869
-0.681781
-0.669886
-0.651334
-0.626308
-0.595058
-0.557894
-0.515185
-0.467356
-0.414882
-0.358285
-0.298127
-0.235007
-0.16955
-0.102409
-0.0342498
0.0342498
0.102409
0.16955
0.235007
0.298127
0.358285
0.414882
0.467356
0.515185
0.557894
0.595058
0.626308
0.651334
0.669886
0.681781
0.6869
0.685192
0.676675
0.661432
0.639616
0.611443
0.577193
0.537207
0.491882
0.441668
0.387065
0.328615
0.266899
0.20253
0.136149
0.0684144
0
0
-0.0754543
-0.150159
-0.223371
-0.294363
-0.362429
-0.426894
-0.487116
-0.542497
-0.592486
-0.636587
-0.674361
-0.705433
-0.729494
-0.746305
-0.755699
-0.757582
-0.751937
-0.738818
-0.718356
-0.690756
-0.65629
-0.615301
-0.568198
-0.515447
-0.457574
-0.395153
-0.328805
-0.259189
-0.186997
-0.112947
-0.0377741
0.0377741
0.112947
0.186997
0.259189
0.328805
0.395153
0.457574
0.515447
0.568198
0.615301
0.65629
0.690756
0.718356
0.738818
0.751937
0.757582
0.755699
0.746305
0.729494
0.705433
0.674361
0.636587
0.592486
0.542497
0.487116
0.426894
0.362429
0.294363
0.223371
0.150159
0.0754543
0
0
-0.081759
-0.162706
-0.242035
-0.318959
-0.392713
-0.462564
-0.527818
-0.587826
-0.641992
-0.689778
-0.730708
-0.764377
-0.790448
-0.808664
-0.818843
-0.820884
-0.814766
-0.800551
-0.77838
-0.748473
-0.711127
-0.666714
-0.615675
-0.558516
-0.495807
-0.428171
-0.356279
-0.280846
-0.202622
-0.122384
-0.0409304
0.0409304
0.122384
0.202622
0.280846
0.356279
0.428171
0.495807
0.558516
0.615675
0.666714
0.711127
0.748473
0.77838
0.800551
0.814766
0.820884
0.818843
0.808664
0.790448
0.764377
0.730708
0.689778
0.641992
0.587826
0.527818
0.462564
0.392713
0.318959
0.242035
0.162706
0.081759
0
0
-0.0872682
-0.173669
-0.258344
-0.340451
-0.419175
-0.493733
-0.563384
-0.627435
-0.685251
-0.736257
-0.779946
-0.815882
-0.843711
-0.863154
-0.874019
-0.876197
-0.869667
-0.854495
-0.830829
-0.798907
-0.759045
-0.711639
-0.65716
-0.596151
-0.529216
-0.457022
-0.380286
-0.29977
-0.216275
-0.130631
-0.0436884
0.0436884
0.130631
0.216275
0.29977
0.380286
0.457022
0.529216
0.596151
0.65716
0.711639
0.759045
0.798907
0.830829
0.854495
0.869667
0.876197
0.874019
0.863154
0.843711
0.815882
0.779946
0.736257
0.685251
0.627435
0.563384
0.493733
0.419175
0.340451
0.258344
0.173669
0.0872682
0
0
-0.0919293
-0.182945
-0.272143
-0.358635
-0.441564
-0.520104
-0.593475
-0.660948
-0.721852
-0.775582
-0.821604
-0.85946
-0.888775
-0.909257
-0.920702
-0.922996
-0.916118
-0.900135
-0.875206
-0.841578
-0.799587
-0.749649
-0.692261
-0.627992
-0.557483
-0.481432
-0.400598
-0.315782
-0.227827
-0.137608
-0.0460219
0.0460219
0.137608
0.227827
0.315782
0.400598
0.481432
0.557483
0.627992
0.692261
0.749649
0.799587
0.841578
0.875206
0.900135
0.916118
0.922996
0.920702
0.909257
0.888775
0.85946
0.821604
0.775582
0.721852
0.660948
0.593475
0.520104
0.441564
0.358635
0.272143
0.182945
0.0919293
0
0
-0.0956988
-0.190446
-0.283301
-0.373341
-0.45967
-0.54143
-0.61781
-0.688049
-0.75145
-0.807384
-0.855292
-0.894701
-0.925218
-0.946539
-0.958454
-0.960842
-0.953682
-0.937043
-0.911092
-0.876086
-0.832373
-0.780387
-0.720646
-0.653742
-0.580341
-0.501173
-0.417024
-0.32873
-0.237169
-0.143251
-0.0479089
0.0479089
0.143251
0.237169
0.32873
0.417024
0.501173
0.580341
0.653742
0.720646
0.780387
0.832373
0.876086
0.911092
0.937043
0.953682
0.960842
0.958454
0.946539
0.925218
0.894701
0.855292
0.807384
0.75145
0.688049
0.61781
0.54143
0.45967
0.373341
0.283301
0.190446
0.0956988
0
0
-0.0985418
-0.196104
-0.291718
-0.384432
-0.473325
-0.557515
-0.636163
-0.70849
-0.773774
-0.831369
-0.880701
-0.921281
-0.952704
-0.974659
-0.986927
-0.989387
-0.982014
-0.964881
-0.938159
-0.902113
-0.857101
-0.803571
-0.742054
-0.673163
-0.597582
-0.516062
-0.429412
-0.338496
-0.244214
-0.147506
-0.0493322
0.0493322
0.147506
0.244214
0.338496
0.429412
0.516062
0.597582
0.673163
0.742054
0.803571
0.857101
0.902113
0.938159
0.964881
0.982014
0.989387
0.986927
0.974659
0.952704
0.921281
0.880701
0.831369
0.773774
0.70849
0.636163
0.557515
0.473325
0.384432
0.291718
0.196104
0.0985418
0
0
-0.100433
-0.199868
-0.297317
-0.391811
-0.48241
-0.568216
-0.648374
-0.722088
-0.788626
-0.847326
-0.897605
-0.938964
-0.97099
-0.993366
-1.00587
-1.00838
-1.00086
-0.983401
-0.956165
-0.919427
-0.873552
-0.818994
-0.756297
-0.686084
-0.609052
-0.525967
-0.437654
-0.344992
-0.248902
-0.150338
-0.0502791
0.0502791
0.150338
0.248902
0.344992
0.437654
0.525967
0.609052
0.686084
0.756297
0.818994
0.873552
0.919427
0.956165
0.983401
1.00086
1.00838
1.00587
0.993366
0.97099
0.938964
0.897605
0.847326
0.788626
0.722088
0.648374
0.568216
0.48241
0.391811
0.297317
0.199868
0.100433
0
0
-0.101357
-0.201707
-0.300053
-0.395416
-0.48685
-0.573445
-0.654341
-0.728733
-0.795884
-0.855124
-0.905866
-0.947605
-0.979926
-1.00251
-1.01513
-1.01766
-1.01007
-0.992451
-0.964965
-0.927889
-0.881591
-0.826531
-0.763257
-0.692398
-0.614657
-0.530807
-0.441682
-0.348167
-0.251192
-0.151721
-0.0507418
0.0507418
0.151721
0.251192
0.348167
0.441682
0.530807
0.614657
0.692398
0.763257
0.826531
0.881591
0.927889
0.964965
0.992451
1.01007
1.01766
1.01513
1.00251
0.979926
0.947605
0.905866
0.855124
0.795884
0.728733
0.654341
0.573445
0.48685
0.395416
0.300053
0.201707
0.101357
0
0
-0.101309
-0.201611
-0.299909
-0.395227
-0.486617
-0.573171
-0.654028
-0.728385
-0.795503
-0.854715
-0.905433
-0.947152
-0.979457
-1.00203
-1.01464
-1.01717
-1.00959
-0.991976
-0.964504
-0.927445
-0.881169
-0.826136
-0.762892
-0.692067
-0.614363
-0.530553
-0.441471
-0.348001
-0.251072
-0.151649
-0.0507175
0.0507175
0.151649
0.251072
0.348001
0.441471
0.530553
0.614363
0.692067
0.762892
0.826136
0.881169
0.927445
0.964504
0.991976
1.00959
1.01717
1.01464
1.00203
0.979457
0.947152
0.905433
0.854715
0.795503
0.728385
0.654028
0.573171
0.486617
0.395227
0.299909
0.201611
0.101309
0
0
-0.100292
-0.199588
-0.2969
-0.391261
-0.481734
-0.567419
-0.647464
-0.721075
-0.78752
-0.846138
-0.896346
-0.937647
-0.969628
-0.991973
-1.00446
-1.00696
-0.999459
-0.982021
-0.954824
-0.918138
-0.872326
-0.817845
-0.755236
-0.685122
-0.608198
-0.525229
-0.437041
-0.344509
-0.248553
-0.150127
-0.0502086
0.0502086
0.150127
0.248553
0.344509
0.437041
0.525229
0.608198
0.685122
0.755236
0.817845
0.872326
0.918138
0.954824
0.982021
0.999459
1.00696
1.00446
0.991973
0.969628
0.937647
0.896346
0.846138
0.78752
0.721075
0.647464
0.567419
0.481734
0.391261
0.2969
0.199588
0.100292
0
0
-0.0983218
-0.195666
-0.291066
-0.383574
-0.472269
-0.55627
-0.634743
-0.706908
-0.772047
-0.829513
-0.878735
-0.919224
-0.950577
-0.972483
-0.984724
-0.987178
-0.979822
-0.962727
-0.936064
-0.900099
-0.855187
-0.801777
-0.740398
-0.671661
-0.596248
-0.51491
-0.428454
-0.33774
-0.243669
-0.147177
-0.0492221
0.0492221
0.147177
0.243669
0.33774
0.428454
0.51491
0.596248
0.671661
0.740398
0.801777
0.855187
0.900099
0.936064
0.962727
0.979822
0.987178
0.984724
0.972483
0.950577
0.919224
0.878735
0.829513
0.772047
0.706908
0.634743
0.55627
0.472269
0.383574
0.291066
0.195666
0.0983218
0
0
-0.0954219
-0.189895
-0.282482
-0.37226
-0.45834
-0.539863
-0.616022
-0.686058
-0.749276
-0.805047
-0.852818
-0.892112
-0.922541
-0.9438
-0.95568
-0.958062
-0.950922
-0.934332
-0.908456
-0.873551
-0.829964
-0.778129
-0.71856
-0.65185
-0.578662
-0.499723
-0.415817
-0.327778
-0.236482
-0.142836
-0.0477703
0.0477703
0.142836
0.236482
0.327778
0.415817
0.499723
0.578662
0.65185
0.71856
0.778129
0.829964
0.873551
0.908456
0.934332
0.950922
0.958062
0.95568
0.9438
0.922541
0.892112
0.852818
0.805047
0.749276
0.686058
0.616022
0.539863
0.45834
0.37226
0.282482
0.189895
0.0954219
0
0
-0.0916265
-0.182342
-0.271246
-0.357454
-0.440109
-0.518391
-0.59152
-0.658771
-0.719474
-0.773027
-0.818898
-0.856629
-0.885847
-0.906262
-0.917669
-0.919956
-0.9131
-0.89717
-0.872323
-0.838806
-0.796953
-0.74718
-0.68998
-0.625924
-0.555646
-0.479847
-0.399278
-0.314741
-0.227077
-0.137155
-0.0458703
0.0458703
0.137155
0.227077
0.314741
0.399278
0.479847
0.555646
0.625924
0.68998
0.74718
0.796953
0.838806
0.872323
0.89717
0.9131
0.919956
0.917669
0.906262
0.885847
0.856629
0.818898
0.773027
0.719474
0.658771
0.59152
0.518391
0.440109
0.357454
0.271246
0.182342
0.0916265
0
0
-0.0869793
-0.173094
-0.257489
-0.339324
-0.417788
-0.492099
-0.561519
-0.625359
-0.682983
-0.73382
-0.777364
-0.813182
-0.840918
-0.860297
-0.871126
-0.873297
-0.866789
-0.851666
-0.828079
-0.796263
-0.756532
-0.709283
-0.654985
-0.594177
-0.527464
-0.455509
-0.379027
-0.298778
-0.215559
-0.130199
-0.0435438
0.0435438
0.130199
0.215559
0.298778
0.379027
0.455509
0.527464
0.594177
0.654985
0.709283
0.756532
0.796263
0.828079
0.851666
0.866789
0.873297
0.871126
0.860297
0.840918
0.813182
0.777364
0.73382
0.682983
0.625359
0.561519
0.492099
0.417788
0.339324
0.257489
0.173094
0.0869793
0
0
-0.0815328
-0.162255
-0.241365
-0.318076
-0.391626
-0.461284
-0.526357
-0.586199
-0.640216
-0.687869
-0.728686
-0.762261
-0.788261
-0.806426
-0.816577
-0.818612
-0.812511
-0.798336
-0.776226
-0.746402
-0.709159
-0.664869
-0.613971
-0.556971
-0.494435
-0.426986
-0.355293
-0.280069
-0.202061
-0.122046
-0.0408171
0.0408171
0.122046
0.202061
0.280069
0.355293
0.426986
0.494435
0.556971
0.613971
0.664869
0.709159
0.746402
0.776226
0.798336
0.812511
0.818612
0.816577
0.806426
0.788261
0.762261
0.728686
0.687869
0.640216
0.586199
0.526357
0.461284
0.391626
0.318076
0.241365
0.162255
0.0815328
0
0
-0.075348
-0.149947
-0.223056
-0.293948
-0.361919
-0.426293
-0.48643
-0.541732
-0.591651
-0.63569
-0.673411
-0.704439
-0.728466
-0.745254
-0.754634
-0.756515
-0.750877
-0.737777
-0.717344
-0.689782
-0.655365
-0.614434
-0.567397
-0.514721
-0.456929
-0.394596
-0.328342
-0.258824
-0.186734
-0.112788
-0.0377209
0.0377209
0.112788
0.186734
0.258824
0.328342
0.394596
0.456929
0.514721
0.567397
0.614434
0.655365
0.689782
0.717344
0.737777
0.750877
0.756515
0.754634
0.745254
0.728466
0.704439
0.673411
0.63569
0.591651
0.541732
0.48643
0.426293
0.361919
0.293948
0.223056
0.149947
0.075348
0
0
-0.0684942
-0.136308
-0.202766
-0.26721
-0.328998
-0.387516
-0.442183
-0.492455
-0.537833
-0.577866
-0.612156
-0.640362
-0.662203
-0.677464
-0.685991
-0.687701
-0.682576
-0.670667
-0.652093
-0.627038
-0.595752
-0.558544
-0.515786
-0.467901
-0.415366
-0.358703
-0.298475
-0.235281
-0.169748
-0.102528
-0.0342897
0.0342897
0.102528
0.169748
0.235281
0.298475
0.358703
0.415366
0.467901
0.515786
0.558544
0.595752
0.627038
0.652093
0.670667
0.682576
0.687701
0.685991
0.677464
0.662203
0.640362
0.612156
0.577866
0.537833
0.492455
0.442183
0.387516
0.328998
0.26721
0.202766
0.136308
0.0684942
0
0
-0.061048
-0.121489
-0.180723
-0.238161
-0.293232
-0.345388
-0.394112
-0.438919
-0.479364
-0.515045
-0.545607
-0.570746
-0.590213
-0.603815
-0.611415
-0.612939
-0.608371
-0.597757
-0.581202
-0.558871
-0.530986
-0.497823
-0.459713
-0.417034
-0.37021
-0.319707
-0.266027
-0.209703
-0.151294
-0.0913822
-0.030562
0.030562
0.0913822
0.151294
0.209703
0.266027
0.319707
0.37021
0.417034
0.459713
0.497823
0.530986
0.558871
0.581202
0.597757
0.608371
0.612939
0.611415
0.603815
0.590213
0.570746
0.545607
0.515045
0.479364
0.438919
0.394112
0.345388
0.293232
0.238161
0.180723
0.121489
0.061048
0
0
-0.0530928
-0.105658
-0.157173
-0.207126
-0.25502
-0.30038
-0.342755
-0.381723
-0.416898
-0.447929
-0.474508
-0.496372
-0.513302
-0.525131
-0.531741
-0.533066
-0.529094
-0.519863
-0.505465
-0.486044
-0.461793
-0.432951
-0.399807
-0.36269
-0.321968
-0.278046
-0.231361
-0.182376
-0.131579
-0.0794741
-0.0265794
0.0265794
0.0794741
0.131579
0.182376
0.231361
0.278046
0.321968
0.36269
0.399807
0.432951
0.461793
0.486044
0.505465
0.519863
0.529094
0.533066
0.531741
0.525131
0.513302
0.496372
0.474508
0.447929
0.416898
0.381723
0.342755
0.30038
0.25502
0.207126
0.157173
0.105658
0.0530928
0
0
-0.044718
-0.0889915
-0.132381
-0.174454
-0.214794
-0.252999
-0.288689
-0.321511
-0.351137
-0.377273
-0.39966
-0.418075
-0.432334
-0.442297
-0.447865
-0.448981
-0.445635
-0.43786
-0.425734
-0.409376
-0.38895
-0.364658
-0.336742
-0.30548
-0.271181
-0.234187
-0.194866
-0.153608
-0.110824
-0.066938
-0.0223868
0.0223868
0.066938
0.110824
0.153608
0.194866
0.234187
0.271181
0.30548
0.336742
0.364658
0.38895
0.409376
0.425734
0.43786
0.445635
0.448981
0.447865
0.442297
0.432334
0.418075
0.39966
0.377273
0.351137
0.321511
0.288689
0.252999
0.214794
0.174454
0.132381
0.0889915
0.044718
0
0
-0.0360183
-0.0716785
-0.106626
-0.140515
-0.173006
-0.203779
-0.232526
-0.258962
-0.282824
-0.303876
-0.321907
-0.33674
-0.348225
-0.35625
-0.360734
-0.361633
-0.358938
-0.352676
-0.342909
-0.329733
-0.313281
-0.293715
-0.27123
-0.24605
-0.218424
-0.188627
-0.156956
-0.123724
-0.0892635
-0.0539154
-0.0180315
0.0180315
0.0539154
0.0892635
0.123724
0.156956
0.188627
0.218424
0.24605
0.27123
0.293715
0.313281
0.329733
0.342909
0.352676
0.358938
0.361633
0.360734
0.35625
0.348225
0.33674
0.321907
0.303876
0.282824
0.258962
0.232526
0.203779
0.173006
0.140515
0.106626
0.0716785
0.0360183
0
0
-0.0270927
-0.0539162
-0.0802038
-0.105694
-0.130134
-0.153281
-0.174904
-0.19479
-0.212739
-0.228574
-0.242137
-0.253294
-0.261933
-0.267969
-0.271342
-0.272018
-0.269991
-0.265281
-0.257934
-0.248023
-0.235648
-0.220931
-0.204018
-0.185077
-0.164297
-0.141884
-0.118061
-0.0930647
-0.0671434
-0.0405548
-0.0135632
0.0135632
0.0405548
0.0671434
0.0930647
0.118061
0.141884
0.164297
0.185077
0.204018
0.220931
0.235648
0.248023
0.257934
0.265281
0.269991
0.272018
0.271342
0.267969
0.261933
0.253294
0.242137
0.228574
0.212739
0.19479
0.174904
0.153281
0.130134
0.105694
0.0802038
0.0539162
0.0270927
0
0
-0.018044
-0.0359086
-0.0534164
-0.0703933
-0.0866706
-0.102087
-0.116488
-0.129731
-0.141686
-0.152232
-0.161265
-0.168696
-0.17445
-0.17847
-0.180716
-0.181167
-0.179816
-0.176679
-0.171786
-0.165186
-0.156944
-0.147142
-0.135878
-0.123263
-0.109423
-0.094496
-0.0786297
-0.0619819
-0.0447181
-0.0270099
-0.00903322
0.00903322
0.0270099
0.0447181
0.0619819
0.0786297
0.094496
0.109423
0.123263
0.135878
0.147142
0.156944
0.165186
0.171786
0.176679
0.179816
0.181167
0.180716
0.17847
0.17445
0.168696
0.161265
0.152232
0.141686
0.129731
0.116488
0.102087
0.0866706
0.0703933
0.0534164
0.0359086
0.018044
0
0
-0.00897737
-0.0178655
-0.0265761
-0.0350226
-0.043121
-0.0507908
-0.0579559
-0.064545
-0.0704926
-0.0757396
-0.0802338
-0.0839307
-0.0867935
-0.0887936
-0.0899113
-0.0901354
-0.0894636
-0.0879028
-0.0854683
-0.0821844
-0.0780838
-0.0732071
-0.0676028
-0.0613267
-0.054441
-0.0470144
-0.0391204
-0.0308377
-0.0222485
-0.0134382
-0.00449427
0.00449427
0.0134382
0.0222485
0.0308377
0.0391204
0.0470144
0.054441
0.0613267
0.0676028
0.0732071
0.0780838
0.0821844
0.0854683
0.0879028
0.0894636
0.0901354
0.0899113
0.0887936
0.0867935
0.0839307
0.0802338
0.0757396
0.0704926
0.064545
0.0579559
0.0507908
0.043121
0.0350226
0.0265761
0.0178655
0.00897737
0
