# vtk DataFile Version 3.0
Laplace Solution
ASCII
DATASET STRUCTURED_POINTS
DIMENSIONS 64 64 1
ORIGIN 0 0 0
SPACING 0.015873 0.015873 1
POINT_DATA 4096
SCALARS solution double
LOOKUP_TABLE default
0
0.00897717
0.0178651
0.0265755
0.0350218
0.04312
0.0507897
0.0579546
0.0645435
0.070491
0.0757379
0.080232
0.0839288
0.0867915
0.0887916
0.0899092
0.0901333
0.0894616
0.0879008
0.0854664
0.0821826
0.078082
0.0732054
0.0676013
0.0613253
0.0544398
0.0470133
0.0391195
0.030837
0.022248
0.0134378
0.00449417
-0.00449417
-0.0134378
-0.022248
-0.030837
-0.0391195
-0.0470133
-0.0544398
-0.0613253
-0.0676013
-0.0732054
-0.078082
-0.0821826
-0.0854664
-0.0879008
-0.0894616
-0.0901333
-0.0899092
-0.0887916
-0.0867915
-0.0839288
-0.080232
-0.0757379
-0.070491
-0.0645435
-0.0579546
-0.0507897
-0.04312
-0.0350218
-0.0265755
-0.0178651
-0.00897717
0
0
0.0180436
0.0359078
0.0534152
0.0703917
0.0866686
0.102084
0.116485
0.129729
0.141683
0.152229
0.161262
0.168692
0.174446
0.178466
0.180712
0.181163
0.179812
0.176675
0.171782
0.165182
0.15694
0.147138
0.135874
0.12326
0.109421
0.0944939
0.0786279
0.0619805
0.0447171
0.0270093
0.00903301
-0.00903301
-0.0270093
-0.0447171
-0.0619805
-0.0786279
-0.0944939
-0.109421
-0.12326
-0.135874
-0.147138
-0.15694
-0.165182
-0.171782
-0.176675
-0.179812
-0.181163
-0.180712
-0.178466
-0.174446
-0.168692
-0.161262
-0.152229
-0.141683
-0.129729
-0.116485
-0.102084
-0.0866686
-0.0703917
-0.0534152
-0.0359078
-0.0180436
0
0
0.0270921
0.053915
0.080202
0.105692
0.130131
0.153278
0.174901
0.194785
0.212734
0.228568
0.242131
0.253288
0.261927
0.267963
0.271336
0.272012
0.269985
0.265275
0.257928
0.248018
0.235643
0.220926
0.204013
0.185073
0.164293
0.141881
0.118058
0.0930626
0.0671419
0.0405539
0.0135629
-0.0135629
-0.0405539
-0.0671419
-0.0930626
-0.118058
-0.141881
-0.164293
-0.185073
-0.204013
-0.220926
-0.235643
-0.248018
-0.257928
-0.265275
-0.269985
-0.272012
-0.271336
-0.267963
-0.261927
-0.253288
-0.242131
-0.228568
-0.212734
-0.194785
-0.174901
-0.153278
-0.130131
-0.105692
-0.080202
-0.053915
-0.0270921
0
0
0.0360175
0.071677
0.106624
0.140512
0.173003
0.203774
0.232521
0.258956
0.282818
0.303869
0.3219
0.336732
0.348218
0.356242
0.360726
0.361625
0.35893
0.352668
0.342901
0.329726
0.313274
0.293709
0.271224
0.246044
0.218419
0.188623
0.156952
0.123722
0.0892615
0.0539142
0.0180311
-0.0180311
-0.0539142
-0.0892615
-0.123722
-0.156952
-0.188623
-0.218419
-0.246044
-0.271224
-0.293709
-0.313274
-0.329726
-0.342901
-0.352668
-0.35893
-0.361625
-0.360726
-0.356242
-0.348218
-0.336732
-0.3219
-0.303869
-0.282818
-0.258956
-0.232521
-0.203774
-0.173003
-0.140512
-0.106624
-0.071677
-0.0360175
0
0
0.044717
0.0889896
0.132378
0.17445
0.214789
0.252993
0.288683
0.321503
0.351129
0.377265
0.399651
0.418065
0.432325
0.442288
0.447855
0.448971
0.445625
0.437851
0.425724
0.409367
0.388941
0.36465
0.336735
0.305473
0.271175
0.234182
0.194862
0.153605
0.110821
0.0669365
0.0223863
-0.0223863
-0.0669365
-0.110821
-0.153605
-0.194862
-0.234182
-0.271175
-0.305473
-0.336735
-0.36465
-0.388941
-0.409367
-0.425724
-0.437851
-0.445625
-0.448971
-0.447855
-0.442288
-0.432325
-0.418065
-0.399651
-0.377265
-0.351129
-0.321503
-0.288683
-0.252993
-0.214789
-0.17445
-0.132378
-0.0889896
-0.044717
0
0
0.0530916
0.105656
0.157169
0.207121
0.255015
0.300374
0.342747
0.381715
0.416889
0.447919
0.474498
0.496361
0.513291
0.52512
0.531729
0.533055
0.529082
0.519851
0.505454
0.486034
0.461782
0.432942
0.399799
0.362682
0.321961
0.27804
0.231356
0.182372
0.131576
0.0794724
0.0265788
-0.0265788
-0.0794724
-0.131576
-0.182372
-0.231356
-0.27804
-0.321961
-0.362682
-0.399799
-0.432942
-0.461782
-0.486034
-0.505454
-0.519851
-0.529082
-0.533055
-0.531729
-0.52512
-0.513291
-0.496361
-0.474498
-0.447919
-0.416889
-0.381715
-0.342747
-0.300374
-0.255015
-0.207121
-0.157169
-0.105656
-0.0530916
0
0
0.0610467
0.121487
0.180719
0.238156
0.293225
0.345381
0.394103
0.43891
0.479354
0.515033
0.545595
0.570734
0.590201
0.603802
0.611402
0.612926
0.608358
0.597744
0.58119
0.558859
0.530974
0.497812
0.459703
0.417025
0.370202
0.3197
0.266021
0.209698
0.151291
0.0913802
0.0305613
-0.0305613
-0.0913802
-0.151291
-0.209698
-0.266021
-0.3197
-0.370202
-0.417025
-0.459703
-0.497812
-0.530974
-0.558859
-0.58119
-0.597744
-0.608358
-0.612926
-0.611402
-0.603802
-0.590201
-0.570734
-0.545595
-0.515033
-0.479354
-0.43891
-0.394103
-0.345381
-0.293225
-0.238156
-0.180719
-0.121487
-0.0610467
0
0
0.0684927
0.136305
0.202762
0.267204
0.328991
0.387508
0.442174
0.492445
0.537822
0.577854
0.612143
0.640348
0.662189
0.677449
0.685976
0.687686
0.682561
0.670653
0.652079
0.627025
0.595739
0.558532
0.515774
0.467891
0.415357
0.358695
0.298469
0.235276
0.169744
0.102526
0.034289
-0.034289
-0.102526
-0.169744
-0.235276
-0.298469
-0.358695
-0.415357
-0.467891
-0.515774
-0.558532
-0.595739
-0.627025
-0.652079
-0.670653
-0.682561
-0.687686
-0.685976
-0.677449
-0.662189
-0.640348
-0.612143
-0.577854
-0.537822
-0.492445
-0.442174
-0.387508
-0.328991
-0.267204
-0.202762
-0.136305
-0.0684927
0
0
0.0753464
0.149944
0.223051
0.293942
0.361911
0.426283
0.486419
0.541721
0.591638
0.635676
0.673396
0.704424
0.728451
0.745238
0.754618
0.756499
0.750861
0.737761
0.717329
0.689767
0.655351
0.614421
0.567385
0.51471
0.456919
0.394588
0.328335
0.258818
0.18673
0.112785
0.0377201
-0.0377201
-0.112785
-0.18673
-0.258818
-0.328335
-0.394588
-0.456919
-0.51471
-0.567385
-0.614421
-0.655351
-0.689767
-0.717329
-0.737761
-0.750861
-0.756499
-0.754618
-0.745238
-0.728451
-0.704424
-0.673396
-0.635676
-0.591638
-0.541721
-0.486419
-0.426283
-0.361911
-0.293942
-0.223051
-0.149944
-0.0753464
0
0
0.081531
0.162252
0.24136
0.318069
0.391618
0.461274
0.526346
0.586187
0.640202
0.687854
0.728671
0.762245
0.788244
0.806409
0.816559
0.818594
0.812494
0.798319
0.776209
0.746386
0.709144
0.664855
0.613958
0.556959
0.494425
0.426977
0.355285
0.280063
0.202057
0.122043
0.0408163
-0.0408163
-0.122043
-0.202057
-0.280063
-0.355285
-0.426977
-0.494425
-0.556959
-0.613958
-0.664855
-0.709144
-0.746386
-0.776209
-0.798319
-0.812494
-0.818594
-0.816559
-0.806409
-0.788244
-0.762245
-0.728671
-0.687854
-0.640202
-0.586187
-0.526346
-0.461274
-0.391618
-0.318069
-0.24136
-0.162252
-0.081531
0
0
0.0869775
0.173091
0.257483
0.339317
0.417779
0.492088
0.561507
0.625345
0.682969
0.733805
0.777347
0.813165
0.8409
0.860279
0.871107
0.873278
0.86677
0.851648
0.828062
0.796246
0.756516
0.709268
0.654971
0.594165
0.527453
0.4555
0.379019
0.298772
0.215555
0.130196
0.0435429
-0.0435429
-0.130196
-0.215555
-0.298772
-0.379019
-0.4555
-0.527453
-0.594165
-0.654971
-0.709268
-0.756516
-0.796246
-0.828062
-0.851648
-0.86677
-0.873278
-0.871107
-0.860279
-0.8409
-0.813165
-0.777347
-0.733805
-0.682969
-0.625345
-0.561507
-0.492088
-0.417779
-0.339317
-0.257483
-0.173091
-0.0869775
0
0
0.0916246
0.182339
0.27124
0.357447
0.4401
0.51838
0.591508
0.658757
0.719459
0.773011
0.81888
0.856611
0.885829
0.906242
0.91765
0.919937
0.913081
0.897151
0.872304
0.838788
0.796936
0.747164
0.689966
0.62591
0.555635
0.479837
0.39927
0.314735
0.227072
0.137152
0.0458693
-0.0458693
-0.137152
-0.227072
-0.314735
-0.39927
-0.479837
-0.555635
-0.62591
-0.689966
-0.747164
-0.796936
-0.838788
-0.872304
-0.897151
-0.913081
-0.919937
-0.91765
-0.906242
-0.885829
-0.856611
-0.81888
-0.773011
-0.719459
-0.658757
-0.591508
-0.51838
-0.4401
-0.357447
-0.27124
-0.182339
-0.0916246
0
0
0.0954198
0.189891
0.282476
0.372253
0.45833
0.539852
0.616009
0.686044
0.74926
0.80503
0.8528
0.892093
0.922521
0.943781
0.95566
0.958042
0.950902
0.934312
0.908437
0.873532
0.829947
0.778113
0.718545
0.651837
0.57865
0.499712
0.415808
0.327772
0.236477
0.142833
0.0477693
-0.0477693
-0.142833
-0.236477
-0.327772
-0.415808
-0.499712
-0.57865
-0.651837
-0.718545
-0.778113
-0.829947
-0.873532
-0.908437
-0.934312
-0.950902
-0.958042
-0.95566
-0.943781
-0.922521
-0.892093
-0.8528
-0.80503
-0.74926
-0.686044
-0.616009
-0.539852
-0.45833
-0.372253
-0.282476
-0.189891
-0.0954198
0
0
0.0983197
0.195662
0.29106
0.383566
0.472259
0.556259
0.63473
0.706893
0.772031
0.829496
0.878717
0.919205
0.950557
0.972463
0.984703
0.987158
0.979801
0.962707
0.936045
0.90008
0.855169
0.80176
0.740382
0.671647
0.596236
0.514899
0.428445
0.337733
0.243664
0.147174
0.049221
-0.049221
-0.147174
-0.243664
-0.337733
-0.428445
-0.514899
-0.596236
-0.671647
-0.740382
-0.80176
-0.855169
-0.90008
-0.936045
-0.962707
-0.979801
-0.987158
-0.984703
-0.972463
-0.950557
-0.919205
-0.878717
-0.829496
-0.772031
-0.706893
-0.63473
-0.556259
-0.472259
-0.383566
-0.29106
-0.195662
-0.0983197
0
0
0.10029
0.199584
0.296894
0.391253
0.481724
0.567407
0.647451
0.72106
0.787503
0.84612
0.896328
0.937627
0.969608
0.991952
1.00444
1.00694
0.999438
0.982001
0.954804
0.918119
0.872308
0.817828
0.755221
0.685107
0.608185
0.525218
0.437031
0.344501
0.248548
0.150124
0.0502075
-0.0502075
-0.150124
-0.248548
-0.344501
-0.437031
-0.525218
-0.608185
-0.685107
-0.755221
-0.817828
-0.872308
-0.918119
-0.954804
-0.982001
-0.999438
-1.00694
-1.00444
-0.991952
-0.969608
-0.937627
-0.896328
-0.84612
-0.787503
-0.72106
-0.647451
-0.567407
-0.481724
-0.391253
-0.296894
-0.199584
-0.10029
0
0
0.101307
0.201607
0.299903
0.395219
0.486607
0.573159
0.654014
0.72837
0.795487
0.854697
0.905414
0.947132
0.979437
1.00201
1.01462
1.01715
1.00957
0.991956
0.964483
0.927426
0.881151
0.826119
0.762877
0.692052
0.61435
0.530542
0.441462
0.347994
0.251067
0.151645
0.0507165
-0.0507165
-0.151645
-0.251067
-0.347994
-0.441462
-0.530542
-0.61435
-0.692052
-0.762877
-0.826119
-0.881151
-0.927426
-0.964483
-0.991956
-1.00957
-1.01715
-1.01462
-1.00201
-0.979437
-0.947132
-0.905414
-0.854697
-0.795487
-0.72837
-0.654014
-0.573159
-0.486607
-0.395219
-0.299903
-0.201607
-0.101307
0
0
0.101355
0.201703
0.300047
0.395408
0.48684
0.573433
0.654327
0.728718
0.795867
0.855106
0.905847
0.947585
0.979905
1.00249
1.01511
1.01764
1.01005
0.99243
0.964945
0.927869
0.881572
0.826514
0.763241
0.692383
0.614644
0.530796
0.441673
0.34816
0.251187
0.151718
0.0507407
-0.0507407
-0.151718
-0.251187
-0.34816
-0.441673
-0.530796
-0.614644
-0.692383
-0.763241
-0.826514
-0.881572
-0.927869
-0.964945
-0.99243
-1.01005
-1.01764
-1.01511
-1.00249
-0.979905
-0.947585
-0.905847
-0.855106
-0.795867
-0.728718
-0.654327
-0.573433
-0.48684
-0.395408
-0.300047
-0.201703
-0.101355
0
0
0.100431
0.199864
0.297311
0.391802
0.4824
0.568204
0.64836
0.722073
0.78861
0.847309
0.897587
0.938944
0.97097
0.993346
1.00585
1.00836
1.00084
0.98338
0.956146
0.919408
0.873534
0.818977
0.756282
0.68607
0.609039
0.525956
0.437645
0.344985
0.248897
0.150334
0.050278
-0.050278
-0.150334
-0.248897
-0.344985
-0.437645
-0.525956
-0.609039
-0.68607
-0.756282
-0.818977
-0.873534
-0.919408
-0.956146
-0.98338
-1.00084
-1.00836
-1.00585
-0.993346
-0.97097
-0.938944
-0.897587
-0.847309
-0.78861
-0.722073
-0.64836
-0.568204
-0.4824
-0.391802
-0.297311
-0.199864
-0.100431
0
0
0.0985397
0.1961
0.291712
0.384424
0.473316
0.557503
0.63615
0.708475
0.773758
0.831352
0.880683
0.921262
0.952684
0.974639
0.986907
0.989367
0.981994
0.964861
0.938139
0.902094
0.857083
0.803554
0.742039
0.673149
0.59757
0.516051
0.429404
0.338489
0.244209
0.147503
0.0493312
-0.0493312
-0.147503
-0.244209
-0.338489
-0.429404
-0.516051
-0.59757
-0.673149
-0.742039
-0.803554
-0.857083
-0.902094
-0.938139
-0.964861
-0.981994
-0.989367
-0.986907
-0.974639
-0.952684
-0.921262
-0.880683
-0.831352
-0.773758
-0.708475
-0.63615
-0.557503
-0.473316
-0.384424
-0.291712
-0.1961
-0.0985397
0
0
0.0956968
0.190442
0.283295
0.373333
0.45966
0.541419
0.617797
0.688035
0.751435
0.807367
0.855275
0.894683
0.925199
0.94652
0.958434
0.960823
0.953662
0.937024
0.911073
0.876068
0.832356
0.780371
0.720631
0.653729
0.580329
0.501163
0.417015
0.328723
0.237164
0.143248
0.0479079
-0.0479079
-0.143248
-0.237164
-0.328723
-0.417015
-0.501163
-0.580329
-0.653729
-0.720631
-0.780371
-0.832356
-0.876068
-0.911073
-0.937024
-0.953662
-0.960823
-0.958434
-0.94652
-0.925199
-0.894683
-0.855275
-0.807367
-0.751435
-0.688035
-0.617797
-0.541419
-0.45966
-0.373333
-0.283295
-0.190442
-0.0956968
0
0
0.0919274
0.182941
0.272137
0.358628
0.441555
0.520093
0.593463
0.660934
0.721837
0.775566
0.821587
0.859443
0.888757
0.909238
0.920683
0.922977
0.916099
0.900116
0.875188
0.841561
0.79957
0.749633
0.692246
0.627979
0.557471
0.481423
0.400589
0.315775
0.227822
0.137605
0.0460209
-0.0460209
-0.137605
-0.227822
-0.315775
-0.400589
-0.481423
-0.557471
-0.627979
-0.692246
-0.749633
-0.79957
-0.841561
-0.875188
-0.900116
-0.916099
-0.922977
-0.920683
-0.909238
-0.888757
-0.859443
-0.821587
-0.775566
-0.721837
-0.660934
-0.593463
-0.520093
-0.441555
-0.358628
-0.272137
-0.182941
-0.0919274
0
0
0.0872664
0.173665
0.258339
0.340444
0.419166
0.493723
0.563372
0.627423
0.685237
0.736242
0.779929
0.815866
0.843693
0.863136
0.874001
0.876179
0.86965
0.854477
0.830812
0.798891
0.759029
0.711624
0.657147
0.596138
0.529205
0.457013
0.380278
0.299764
0.216271
0.130628
0.0436875
-0.0436875
-0.130628
-0.216271
-0.299764
-0.380278
-0.457013
-0.529205
-0.596138
-0.657147
-0.711624
-0.759029
-0.798891
-0.830812
-0.854477
-0.86965
-0.876179
-0.874001
-0.863136
-0.843693
-0.815866
-0.779929
-0.736242
-0.685237
-0.627423
-0.563372
-0.493723
-0.419166
-0.340444
-0.258339
-0.173665
-0.0872664
0
0
0.0817574
0.162702
0.24203
0.318952
0.392705
0.462555
0.527807
0.587814
0.641979
0.689764
0.730693
0.764361
0.790432
0.808647
0.818826
0.820867
0.81475
0.800535
0.778364
0.748458
0.711113
0.6667
0.615662
0.558505
0.495797
0.428162
0.356272
0.28084
0.202618
0.122382
0.0409296
-0.0409296
-0.122382
-0.202618
-0.28084
-0.356272
-0.428162
-0.495797
-0.558505
-0.615662
-0.6667
-0.711113
-0.748458
-0.778364
-0.800535
-0.81475
-0.820867
-0.818826
-0.808647
-0.790432
-0.764361
-0.730693
-0.689764
-0.641979
-0.587814
-0.527807
-0.462555
-0.392705
-0.318952
-0.24203
-0.162702
-0.0817574
0
0
0.0754528
0.150156
0.223366
0.294357
0.362422
0.426885
0.487106
0.542486
0.592474
0.636574
0.674347
0.705418
0.729479
0.74629
0.755684
0.757567
0.751921
0.738803
0.718342
0.690741
0.656276
0.615289
0.568186
0.515437
0.457564
0.395145
0.328798
0.259184
0.186993
0.112945
0.0377733
-0.0377733
-0.112945
-0.186993
-0.259184
-0.328798
-0.395145
-0.457564
-0.515437
-0.568186
-0.615289
-0.656276
-0.690741
-0.718342
-0.738803
-0.751921
-0.757567
-0.755684
-0.74629
-0.729479
-0.705418
-0.674347
-0.636574
-0.592474
-0.542486
-0.487106
-0.426885
-0.362422
-0.294357
-0.223366
-0.150156
-0.0754528
0
0
0.068413
0.136146
0.202526
0.266893
0.328608
0.387057
0.441659
0.491872
0.537196
0.577181
0.61143
0.639603
0.661419
0.676661
0.685178
0.686886
0.681767
0.669872
0.65132
0.626295
0.595046
0.557882
0.515174
0.467346
0.414874
0.358278
0.298121
0.235002
0.169547
0.102407
0.0342491
-0.0342491
-0.102407
-0.169547
-0.235002
-0.298121
-0.358278
-0.414874
-0.467346
-0.515174
-0.557882
-0.595046
-0.626295
-0.65132
-0.669872
-0.681767
-0.686886
-0.685178
-0.676661
-0.661419
-0.639603
-0.61143
-0.577181
-0.537196
-0.491872
-0.441659
-0.387057
-0.328608
-0.266893
-0.202526
-0.136146
-0.068413
0
0
0.060706
0.120809
0.179711
0.236827
0.291589
0.343454
0.391905
0.436461
0.476679
0.51216
0.542551
0.567549
0.586907
0.600433
0.60799
0.609506
0.604963
0.594409
0.577947
0.555741
0.528012
0.495035
0.457138
0.414698
0.368137
0.317917
0.264537
0.208528
0.150447
0.0908704
0.0303908
-0.0303908
-0.0908704
-0.150447
-0.208528
-0.264537
-0.317917
-0.368137
-0.414698
-0.457138
-0.495035
-0.528012
-0.555741
-0.577947
-0.594409
-0.604963
-0.609506
-0.60799
-0.600433
-0.586907
-0.567549
-0.542551
-0.51216
-0.476679
-0.436461
-0.391905
-0.343454
-0.291589
-0.236827
-0.179711
-0.120809
-0.060706
0
0
0.0524065
0.104292
0.155141
0.204449
0.251724
0.296498
0.338324
0.376789
0.411509
0.442139
0.468375
0.489956
0.506667
0.518343
0.524868
0.526176
0.522255
0.513143
0.498932
0.479761
0.455823
0.427355
0.394639
0.358002
0.317806
0.274452
0.22837
0.180019
0.129878
0.0784468
0.0262359
-0.0262359
-0.0784468
-0.129878
-0.180019
-0.22837
-0.274452
-0.317806
-0.358002
-0.394639
-0.427355
-0.455823
-0.479761
-0.498932
-0.513143
-0.522255
-0.526176
-0.524868
-0.518343
-0.506667
-0.489956
-0.468375
-0.442139
-0.411509
-0.376789
-0.338324
-0.296498
-0.251724
-0.204449
-0.155141
-0.104292
-0.0524065
0
0
0.043595
0.0867568
0.129056
0.170073
0.2094
0.246645
0.28144
0.313437
0.342319
0.367799
0.389623
0.407576
0.421478
0.43119
0.436618
0.437706
0.434444
0.426865
0.415043
0.399096
0.379183
0.355501
0.328286
0.297808
0.264371
0.228306
0.189973
0.149751
0.108041
0.065257
0.0218246
-0.0218246
-0.065257
-0.108041
-0.149751
-0.189973
-0.228306
-0.264371
-0.297808
-0.328286
-0.355501
-0.379183
-0.399096
-0.415043
-0.426865
-0.434444
-0.437706
-0.436618
-0.43119
-0.421478
-0.407576
-0.389623
-0.367799
-0.342319
-0.313437
-0.28144
-0.246645
-0.2094
-0.170073
-0.129056
-0.0867568
-0.043595
0
0
0.0343575
0.0683734
0.10171
0.134036
0.165029
0.194382
0.221804
0.247021
0.269783
0.289864
0.307064
0.321213
0.332169
0.339823
0.344101
0.344958
0.342388
0.336414
0.327097
0.314529
0.298836
0.280172
0.258724
0.234704
0.208352
0.179929
0.149718
0.118019
0.0851475
0.0514294
0.0172001
-0.0172001
-0.0514294
-0.0851475
-0.118019
-0.149718
-0.179929
-0.208352
-0.234704
-0.258724
-0.280172
-0.298836
-0.314529
-0.327097
-0.336414
-0.342388
-0.344958
-0.344101
-0.339823
-0.332169
-0.321213
-0.307064
-0.289864
-0.269783
-0.247021
-0.221804
-0.194382
-0.165029
-0.134036
-0.10171
-0.0683734
-0.0343575
0
0
0.0247839
0.0493216
0.073369
0.0966873
0.119045
0.140219
0.16
0.17819
0.19461
0.209095
0.221503
0.231709
0.239612
0.245134
0.248219
0.248838
0.246983
0.242674
0.235953
0.226888
0.215567
0.202104
0.186632
0.169305
0.150296
0.129793
0.108
0.085134
0.0614217
0.0370989
0.0124074
-0.0124074
-0.0370989
-0.0614217
-0.085134
-0.108
-0.129793
-0.150296
-0.169305
-0.186632
-0.202104
-0.215567
-0.226888
-0.235953
-0.242674
-0.246983
-0.248838
-0.248219
-0.245134
-0.239612
-0.231709
-0.221503
-0.209095
-0.19461
-0.17819
-0.16
-0.140219
-0.119045
-0.0966873
-0.073369
-0.0493216
-0.0247839
0
0
0.014968
0.0297873
0.0443105
0.0583934
0.0718959
0.0846838
0.0966302
0.107616
0.117533
0.126281
0.133774
0.139938
0.144711
0.148046
0.14991
0.150283
0.149163
0.146561
0.142502
0.137027
0.13019
0.122059
0.112715
0.10225
0.0907699
0.0783873
0.0652257
0.0514159
0.037095
0.0224055
0.00749333
-0.00749333
-0.0224055
-0.037095
-0.0514159
-0.0652257
-0.0783873
-0.0907699
-0.10225
-0.112715
-0.122059
-0.13019
-0.137027
-0.142502
-0.146561
-0.149163
-0.150283
-0.14991
-0.148046
-0.144711
-0.139938
-0.133774
-0.126281
-0.117533
-0.107616
-0.0966302
-0.0846838
-0.0718959
-0.0583934
-0.0443105
-0.0297873
-0.014968
0
0
0.00500567
0.00996159
0.0148185
0.0195281
0.0240437
0.0283203
0.0323155
0.0359894
0.0393057
0.0422314
0.0447374
0.0467987
0.0483949
0.0495102
0.0501334
0.0502583
0.0498838
0.0490135
0.047656
0.045825
0.0435385
0.0408193
0.0376944
0.034195
0.0303556
0.0262146
0.021813
0.0171947
0.0124055
0.00749294
0.00250595
-0.00250595
-0.00749294
-0.0124055
-0.0171947
-0.021813
-0.0262146
-0.0303556
-0.034195
-0.0376944
-0.0408193
-0.0435385
-0.045825
-0.047656
-0.0490135
-0.0498838
-0.0502583
-0.0501334
-0.0495102
-0.0483949
-0.0467987
-0.0447374
-0.0422314
-0.0393057
-0.0359894
-0.0323155
-0.0283203
-0.0240437
-0.0195281
-0.0148185
-0.00996159
-0.00500567
0
0
-0.00500567
-0.00996159
-0.0148185
-0.0195281
-0.0240437
-0.0283203
-0.0323155
-0.0359894
-0.0393057
-0.0422314
-0.0447374
-0.0467987
-0.0483949
-0.0495102
-0.0501334
-0.0502583
-0.0498838
-0.0490135
-0.047656
-0.045825
-0.0435385
-0.0408193
-0.0376944
-0.034195
-0.0303556
-0.0262146
-0.021813
-0.0171947
-0.0124055
-0.00749294
-0.00250595
0.00250595
0.00749294
0.0124055
0.0171947
0.021813
0.0262146
0.0303556
0.034195
0.0376944
0.0408193
0.0435385
0.045825
0.047656
0.0490135
0.0498838
0.0502583
0.0501334
0.0495102
0.0483949
0.0467987
0.0447374
0.0422314
0.0393057
0.0359894
0.0323155
0.0283203
0.0240437
0.0195281
0.0148185
0.00996159
0.00500567
0
0
-0.014968
-0.0297873
-0.0443105
-0.0583934
-0.0718959
-0.0846838
-0.0966302
-0.107616
-0.117533
-0.126281
-0.133774
-0.139938
-0.144711
-0.148046
-0.14991
-0.150283
-0.149163
-0.146561
-0.142502
-0.137027
-0.13019
-0.122059
-0.112715
-0.10225
-0.0907699
-0.0783873
-0.0652257
-0.0514159
-0.037095
-0.0224055
-0.00749333
0.00749333
0.0224055
0.037095
0.0514159
0.0652257
0.0783873
0.0907699
0.10225
0.112715
0.122059
0.13019
0.137027
0.142502
0.146561
0.149163
0.150283
0.14991
0.148046
0.144711
0.139938
0.133774
0.126281
0.117533
0.107616
0.0966302
0.0846838
0.0718959
0.0583934
0.0443105
0.0297873
0.014968
0
0
-0.0247839
-0.0493216
-0.073369
-0.0966873
-0.119045
-0.140219
-0.16
-0.17819
-0.19461
-0.209095
-0.221503
-0.231709
-0.239612
-0.245134
-0.248219
-0.248838
-0.246983
-0.242674
-0.235953
-0.226888
-0.215567
-0.202104
-0.186632
-0.169305
-0.150296
-0.129793
-0.108
-0.085134
-0.0614217
-0.0370989
-0.0124074
0.0124074
0.0370989
0.0614217
0.085134
0.108
0.129793
0.150296
0.169305
0.186632
0.202104
0.215567
0.226888
0.235953
0.242674
0.246983
0.248838
0.248219
0.245134
0.239612
0.231709
0.221503
0.209095
0.19461
0.17819
0.16
0.140219
0.119045
0.0966873
0.073369
0.0493216
0.0247839
0
0
-0.0343575
-0.0683734
-0.10171
-0.134036
-0.165029
-0.194382
-0.221804
-0.247021
-0.269783
-0.289864
-0.307064
-0.321213
-0.332169
-0.339823
-0.344101
-0.344958
-0.342388
-0.336414
-0.327097
-0.314529
-0.298836
-0.280172
-0.258724
-0.234704
-0.208352
-0.179929
-0.149718
-0.118019
-0.0851475
-0.0514294
-0.0172001
0.0172001
0.0514294
0.0851475
0.118019
0.149718
0.179929
0.208352
0.234704
0.258724
0.280172
0.298836
0.314529
0.327097
0.336414
0.342388
0.344958
0.344101
0.339823
0.332169
0.321213
0.307064
0.289864
0.269783
0.247021
0.221804
0.194382
0.165029
0.134036
0.10171
0.0683734
0.0343575
0
0
-0.043595
-0.0867568
-0.129056
-0.170073
-0.2094
-0.246645
-0.28144
-0.313437
-0.342319
-0.367799
-0.389623
-0.407576
-0.421478
-0.43119
-0.436618
-0.437706
-0.434444
-0.426865
-0.415043
-0.399096
-0.379183
-0.355501
-0.328286
-0.297808
-0.264371
-0.228306
-0.189973
-0.149751
-0.108041
-0.065257
-0.0218246
0.0218246
0.065257
0.108041
0.149751
0.189973
0.228306
0.264371
0.297808
0.328286
0.355501
0.379183
0.399096
0.415043
0.426865
0.434444
0.437706
0.436618
0.43119
0.421478
0.407576
0.389623
0.367799
0.342319
0.313437
0.28144
0.246645
0.2094
0.170073
0.129056
0.0867568
0.043595
0
0
-0.0524065
-0.104292
-0.155141
-0.204449
-0.251724
-0.296498
-0.338324
-0.376789
-0.411509
-0.442139
-0.468375
-0.489956
-0.506667
-0.518343
-0.524868
-0.526176
-0.522255
-0.513143
-0.498932
-0.479761
-0.455823
-0.427355
-0.394639
-0.358002
-0.317806
-0.274452
-0.22837
-0.180019
-0.129878
-0.0784468
-0.0262359
0.0262359
0.0784468
0.129878
0.180019
0.22837
0.274452
0.317806
0.358002
0.394639
0.427355
0.455823
0.479761
0.498932
0.513143
0.522255
0.526176
0.524868
0.518343
0.506667
0.489956
0.468375
0.442139
0.411509
0.376789
0.338324
0.296498
0.251724
0.204449
0.155141
0.104292
0.0524065
0
0
-0.060706
-0.120809
-0.179711
-0.236827
-0.291589
-0.343454
-0.391905
-0.436461
-0.476679
-0.51216
-0.542551
-0.567549
-0.586907
-0.600433
-0.60799
-0.609506
-0.604963
-0.594409
-0.577947
-0.555741
-0.528012
-0.495035
-0.457138
-0.414698
-0.368137
-0.317917
-0.264537
-0.208528
-0.150447
-0.0908704
-0.0303908
0.0303908
0.0908704
0.150447
0.208528
0.264537
0.317917
0.368137
0.414698
0.457138
0.495035
0.528012
0.555741
0.577947
0.594409
0.604963
0.609506
0.60799
0.600433
0.586907
0.567549
0.542551
0.51216
0.476679
0.436461
0.391905
0.343454
0.291589
0.236827
0.179711
0.120809
0.060706
0
0
-0.068413
-0.136146
-0.202526
-0.266893
-0.328608
-0.387057
-0.441659
-0.491872
-0.537196
-0.577181
-0.61143
-0.639603
-0.661419
-0.676661
-0.685178
-0.686886
-0.681767
-0.669872
-0.65132
-0.626295
-0.595046
-0.557882
-0.515174
-0.467346
-0.414874
-0.358278
-0.298121
-0.235002
-0.169547
-0.102407
-0.0342491
0.0342491
0.102407
0.169547
0.235002
0.298121
0.358278
0.414874
0.467346
0.515174
0.557882
0.595046
0.626295
0.65132
0.669872
0.681767
0.686886
0.685178
0.676661
0.661419
0.639603
0.61143
0.577181
0.537196
0.491872
0.441659
0.387057
0.328608
0.266893
0.202526
0.136146
0.068413
0
0
-0.0754528
-0.150156
-0.223366
-0.294357
-0.362422
-0.426885
-0.487106
-0.542486
-0.592474
-0.636574
-0.674347
-0.705418
-0.729479
-0.74629
-0.755684
-0.757567
-0.751921
-0.738803
-0.718342
-0.690741
-0.656276
-0.615289
-0.568186
-0.515437
-0.457564
-0.395145
-0.328798
-0.259184
-0.186993
-0.112945
-0.0377733
0.0377733
0.112945
0.186993
0.259184
0.328798
0.395145
0.457564
0.515437
0.568186
0.615289
0.656276
0.690741
0.718342
0.738803
0.751921
0.757567
0.755684
0.74629
0.729479
0.705418
0.674347
0.636574
0.592474
0.542486
0.487106
0.426885
0.362422
0.294357
0.223366
0.150156
0.0754528
0
0
-0.0817574
-0.162702
-0.24203
-0.318952
-0.392705
-0.462555
-0.527807
-0.587814
-0.641979
-0.689764
-0.730693
-0.764361
-0.790432
-0.808647
-0.818826
-0.820867
-0.81475
-0.800535
-0.778364
-0.748458
-0.711113
-0.6667
-0.615662
-0.558505
-0.495797
-0.428162
-0.356272
-0.28084
-0.202618
-0.122382
-0.0409296
0.0409296
0.122382
0.202618
0.28084
0.356272
0.428162
0.495797
0.558505
0.615662
0.6667
0.711113
0.748458
0.778364
0.800535
0.81475
0.820867
0.818826
0.808647
0.790432
0.764361
0.730693
0.689764
0.641979
0.587814
0.527807
0.462555
0.392705
0.318952
0.24203
0.162702
0.0817574
0
0
-0.0872664
-0.173665
-0.258339
-0.340444
-0.419166
-0.493723
-0.563372
-0.627423
-0.685237
-0.736242
-0.779929
-0.815866
-0.843693
-0.863136
-0.874001
-0.876179
-0.86965
-0.854477
-0.830812
-0.798891
-0.759029
-0.711624
-0.657147
-0.596138
-0.529205
-0.457013
-0.380278
-0.299764
-0.216271
-0.130628
-0.0436875
0.0436875
0.130628
0.216271
0.299764
0.380278
0.457013
0.529205
0.596138
0.657147
0.711624
0.759029
0.798891
0.830812
0.854477
0.86965
0.876179
0.874001
0.863136
0.843693
0.815866
0.779929
0.736242
0.685237
0.627423
0.563372
0.493723
0.419166
0.340444
0.258339
0.173665
0.0872664
0
0
-0.0919274
-0.182941
-0.272137
-0.358628
-0.441555
-0.520093
-0.593463
-0.660934
-0.721837
-0.775566
-0.821587
-0.859443
-0.888757
-0.909238
-0.920683
-0.922977
-0.916099
-0.900116
-0.875188
-0.841561
-0.79957
-0.749633
-0.692246
-0.627979
-0.557471
-0.481423
-0.400589
-0.315775
-0.227822
-0.137605
-0.0460209
0.0460209
0.137605
0.227822
0.315775
0.400589
0.481423
0.557471
0.627979
0.692246
0.749633
0.79957
0.841561
0.875188
0.900116
0.916099
0.922977
0.920683
0.909238
0.888757
0.859443
0.821587
0.775566
0.721837
0.660934
0.593463
0.520093
0.441555
0.358628
0.272137
0.182941
0.0919274
0
0
-0.0956968
-0.190442
-0.283295
-0.373333
-0.45966
-0.541419
-0.617797
-0.688035
-0.751435
-0.807367
-0.855275
-0.894683
-0.925199
-0.94652
-0.958434
-0.960823
-0.953662
-0.937024
-0.911073
-0.876068
-0.832356
-0.780371
-0.720631
-0.653729
-0.580329
-0.501163
-0.417015
-0.328723
-0.237164
-0.143248
-0.0479079
0.0479079
0.143248
0.237164
0.328723
0.417015
0.501163
0.580329
0.653729
0.720631
0.780371
0.832356
0.876068
0.911073
0.937024
0.953662
0.960823
0.958434
0.94652
0.925199
0.894683
0.855275
0.807367
0.751435
0.688035
0.617797
0.541419
0.45966
0.373333
0.283295
0.190442
0.0956968
0
0
-0.0985397
-0.1961
-0.291712
-0.384424
-0.473316
-0.557503
-0.63615
-0.708475
-0.773758
-0.831352
-0.880683
-0.921262
-0.952684
-0.974639
-0.986907
-0.989367
-0.981994
-0.964861
-0.938139
-0.902094
-0.857083
-0.803554
-0.742039
-0.673149
-0.59757
-0.516051
-0.429404
-0.338489
-0.244209
-0.147503
-0.0493312
0.0493312
0.147503
0.244209
0.338489
0.429404
0.516051
0.59757
0.673149
0.742039
0.803554
0.857083
0.902094
0.938139
0.964861
0.981994
0.989367
0.986907
0.974639
0.952684
0.921262
0.880683
0.831352
0.773758
0.708475
0.63615
0.557503
0.473316
0.384424
0.291712
0.1961
0.0985397
0
0
-0.100431
-0.199864
-0.297311
-0.391802
-0.4824
-0.568204
-0.64836
-0.722073
-0.78861
-0.847309
-0.897587
-0.938944
-0.97097
-0.993346
-1.00585
-1.00836
-1.00084
-0.98338
-0.956146
-0.919408
-0.873534
-0.818977
-0.756282
-0.68607
-0.609039
-0.525956
-0.437645
-0.344985
-0.248897
-0.150334
-0.050278
0.050278
0.150334
0.248897
0.344985
0.437645
0.525956
0.609039
0.68607
0.756282
0.818977
0.873534
0.919408
0.956146
0.98338
1.00084
1.00836
1.00585
0.993346
0.97097
0.938944
0.897587
0.847309
0.78861
0.722073
0.64836
0.568204
0.4824
0.391802
0.297311
0.199864
0.100431
0
0
-0.101355
-0.201703
-0.300047
-0.395408
-0.48684
-0.573433
-0.654327
-0.728718
-0.795867
-0.855106
-0.905847
-0.947585
-0.979905
-1.00249
-1.01511
-1.01764
-1.01005
-0.99243
-0.964945
-0.927869
-0.881572
-0.826514
-0.763241
-0.692383
-0.614644
-0.530796
-0.441673
-0.34816
-0.251187
-0.151718
-0.0507407
0.0507407
0.151718
0.251187
0.34816
0.441673
0.530796
0.614644
0.692383
0.763241
0.826514
0.881572
0.927869
0.964945
0.99243
1.01005
1.01764
1.01511
1.00249
0.979905
0.947585
0.905847
0.855106
0.795867
0.728718
0.654327
0.573433
0.48684
0.395408
0.300047
0.201703
0.101355
0
0
-0.101307
-0.201607
-0.299903
-0.395219
-0.486607
-0.573159
-0.654014
-0.72837
-0.795487
-0.854697
-0.905414
-0.947132
-0.979437
-1.00201
-1.01462
-1.01715
-1.00957
-0.991956
-0.964483
-0.927426
-0.881151
-0.826119
-0.762877
-0.692052
-0.61435
-0.530542
-0.441462
-0.347994
-0.251067
-0.151645
-0.0507165
0.0507165
0.151645
0.251067
0.347994
0.441462
0.530542
0.61435
0.692052
0.762877
0.826119
0.881151
0.927426
0.964483
0.991956
1.00957
1.01715
1.01462
1.00201
0.979437
0.947132
0.905414
0.854697
0.795487
0.72837
0.654014
0.573159
0.486607
0.395219
0.299903
0.201607
0.101307
0
0
-0.10029
-0.199584
-0.296894
-0.391253
-0.481724
-0.567407
-0.647451
-0.72106
-0.787503
-0.84612
-0.896328
-0.937627
-0.969608
-0.991952
-1.00444
-1.00694
-0.999438
-0.982001
-0.954804
-0.918119
-0.872308
-0.817828
-0.755221
-0.685107
-0.608185
-0.525218
-0.437031
-0.344501
-0.248548
-0.150124
-0.0502075
0.0502075
0.150124
0.248548
0.344501
0.437031
0.525218
0.608185
0.685107
0.755221
0.817828
0.872308
0.918119
0.954804
0.982001
0.999438
1.00694
1.00444
0.991952
0.969608
0.937627
0.896328
0.84612
0.787503
0.72106
0.647451
0.567407
0.481724
0.391253
0.296894
0.199584
0.10029
0
0
-0.0983197
-0.195662
-0.29106
-0.383566
-0.472259
-0.556259
-0.63473
-0.706893
-0.772031
-0.829496
-0.878717
-0.919205
-0.950557
-0.972463
-0.984703
-0.987158
-0.979801
-0.962707
-0.936045
-0.90008
-0.855169
-0.80176
-0.740382
-0.671647
-0.596236
-0.514899
-0.428445
-0.337733
-0.243664
-0.147174
-0.049221
0.049221
0.147174
0.243664
0.337733
0.428445
0.514899
0.596236
0.671647
0.740382
0.80176
0.855169
0.90008
0.936045
0.962707
0.979801
0.987158
0.984703
0.972463
0.950557
0.919205
0.878717
0.829496
0.772031
0.706893
0.63473
0.556259
0.472259
0.383566
0.29106
0.195662
0.0983197
0
0
-0.0954198
-0.189891
-0.282476
-0.372253
-0.45833
-0.539852
-0.616009
-0.686044
-0.74926
-0.80503
-0.8528
-0.892093
-0.922521
-0.943781
-0.95566
-0.958042
-0.950902
-0.934312
-0.908437
-0.873532
-0.829947
-0.778113
-0.718545
-0.651837
-0.57865
-0.499712
-0.415808
-0.327772
-0.236477
-0.142833
-0.0477693
0.0477693
0.142833
0.236477
0.327772
0.415808
0.499712
0.57865
0.651837
0.718545
0.778113
0.829947
0.873532
0.908437
0.934312
0.950902
0.958042
0.95566
0.943781
0.922521
0.892093
0.8528
0.80503
0.74926
0.686044
0.616009
0.539852
0.45833
0.372253
0.282476
0.189891
0.0954198
0
0
-0.0916246
-0.182339
-0.27124
-0.357447
-0.4401
-0.51838
-0.591508
-0.658757
-0.719459
-0.773011
-0.81888
-0.856611
-0.885829
-0.906242
-0.91765
-0.919937
-0.913081
-0.897151
-0.872304
-0.838788
-0.796936
-0.747164
-0.689966
-0.62591
-0.555635
-0.479837
-0.39927
-0.314735
-0.227072
-0.137152
-0.0458693
0.0458693
0.137152
0.227072
0.314735
0.39927
0.479837
0.555635
0.62591
0.689966
0.747164
0.796936
0.838788
0.872304
0.897151
0.913081
0.919937
0.91765
0.906242
0.885829
0.856611
0.81888
0.773011
0.719459
0.658757
0.591508
0.51838
0.4401
0.357447
0.27124
0.182339
0.0916246
0
0
-0.0869775
-0.173091
-0.257483
-0.339317
-0.417779
-0.492088
-0.561507
-0.625345
-0.682969
-0.733805
-0.777347
-0.813165
-0.8409
-0.860279
-0.871107
-0.873278
-0.86677
-0.851648
-0.828062
-0.796246
-0.756516
-0.709268
-0.654971
-0.594165
-0.527453
-0.4555
-0.379019
-0.298772
-0.215555
-0.130196
-0.0435429
0.0435429
0.130196
0.215555
0.298772
0.379019
0.4555
0.527453
0.594165
0.654971
0.709268
0.756516
0.796246
0.828062
0.851648
0.86677
0.873278
0.871107
0.860279
0.8409
0.813165
0.777347
0.733805
0.682969
0.625345
0.561507
0.492088
0.417779
0.339317
0.257483
0.173091
0.0869775
0
0
-0.081531
-0.162252
-0.24136
-0.318069
-0.391618
-0.461274
-0.526346
-0.586187
-0.640202
-0.687854
-0.728671
-0.762245
-0.788244
-0.806409
-0.816559
-0.818594
-0.812494
-0.798319
-0.776209
-0.746386
-0.709144
-0.664855
-0.613958
-0.556959
-0.494425
-0.426977
-0.355285
-0.280063
-0.202057
-0.122043
-0.0408163
0.0408163
0.122043
0.202057
0.280063
0.355285
0.426977
0.494425
0.556959
0.613958
0.664855
0.709144
0.746386
0.776209
0.798319
0.812494
0.818594
0.816559
0.806409
0.788244
0.762245
0.728671
0.687854
0.640202
0.586187
0.526346
0.461274
0.391618
0.318069
0.24136
0.162252
0.081531
0
0
-0.0753464
-0.149944
-0.223051
-0.293942
-0.361911
-0.426283
-0.486419
-0.541721
-0.591638
-0.635676
-0.673396
-0.704424
-0.728451
-0.745238
-0.754618
-0.756499
-0.750861
-0.737761
-0.717329
-0.689767
-0.655351
-0.614421
-0.567385
-0.51471
-0.456919
-0.394588
-0.328335
-0.258818
-0.18673
-0.112785
-0.0377201
0.0377201
0.112785
0.18673
0.258818
0.328335
0.394588
0.456919
0.51471
0.567385
0.614421
0.655351
0.689767
0.717329
0.737761
0.750861
0.756499
0.754618
0.745238
0.728451
0.704424
0.673396
0.635676
0.591638
0.541721
0.486419
0.426283
0.361911
0.293942
0.223051
0.149944
0.0753464
0
0
-0.0684927
-0.136305
-0.202762
-0.267204
-0.328991
-0.387508
-0.442174
-0.492445
-0.537822
-0.577854
-0.612143
-0.640348
-0.662189
-0.677449
-0.685976
-0.687686
-0.682561
-0.670653
-0.652079
-0.627025
-0.595739
-0.558532
-0.515774
-0.467891
-0.415357
-0.358695
-0.298469
-0.235276
-0.169744
-0.102526
-0.034289
0.034289
0.102526
0.169744
0.235276
0.298469
0.358695
0.415357
0.467891
0.515774
0.558532
0.595739
0.627025
0.652079
0.670653
0.682561
0.687686
0.685976
0.677449
0.662189
0.640348
0.612143
0.577854
0.537822
0.492445
0.442174
0.387508
0.328991
0.267204
0.202762
0.136305
0.0684927
0
0
-0.0610467
-0.121487
-0.180719
-0.238156
-0.293225
-0.345381
-0.394103
-0.43891
-0.479354
-0.515033
-0.545595
-0.570734
-0.590201
-0.603802
-0.611402
-0.612926
-0.608358
-0.597744
-0.58119
-0.558859
-0.530974
-0.497812
-0.459703
-0.417025
-0.370202
-0.3197
-0.266021
-0.209698
-0.151291
-0.0913802
-0.0305613
0.0305613
0.0913802
0.151291
0.209698
0.266021
0.3197
0.370202
0.417025
0.459703
0.497812
0.530974
0.558859
0.58119
0.597744
0.608358
0.612926
0.611402
0.603802
0.590201
0.570734
0.545595
0.515033
0.479354
0.43891
0.394103
0.345381
0.293225
0.238156
0.180719
0.121487
0.0610467
0
0
-0.0530916
-0.105656
-0.157169
-0.207121
-0.255015
-0.300374
-0.342747
-0.381715
-0.416889
-0.447919
-0.474498
-0.496361
-0.513291
-0.52512
-0.531729
-0.533055
-0.529082
-0.519851
-0.505454
-0.486034
-0.461782
-0.432942
-0.399799
-0.362682
-0.321961
-0.27804
-0.231356
-0.182372
-0.131576
-0.0794724
-0.0265788
0.0265788
0.0794724
0.131576
0.182372
0.231356
0.27804
0.321961
0.362682
0.399799
0.432942
0.461782
0.486034
0.505454
0.519851
0.529082
0.533055
0.531729
0.52512
0.513291
0.496361
0.474498
0.447919
0.416889
0.381715
0.342747
0.300374
0.255015
0.207121
0.157169
0.105656
0.0530916
0
0
-0.044717
-0.0889896
-0.132378
-0.17445
-0.214789
-0.252993
-0.288683
-0.321503
-0.351129
-0.377265
-0.399651
-0.418065
-0.432325
-0.442288
-0.447855
-0.448971
-0.445625
-0.437851
-0.425724
-0.409367
-0.388941
-0.36465
-0.336735
-0.305473
-0.271175
-0.234182
-0.194862
-0.153605
-0.110821
-0.0669365
-0.0223863
0.0223863
0.0669365
0.110821
0.153605
0.194862
0.234182
0.271175
0.305473
0.336735
0.36465
0.388941
0.409367
0.425724
0.437851
0.445625
0.448971
0.447855
0.442288
0.432325
0.418065
0.399651
0.377265
0.351129
0.321503
0.288683
0.252993
0.214789
0.17445
0.132378
0.0889896
0.044717
0
0
-0.0360175
-0.071677
-0.106624
-0.140512
-0.173003
-0.203774
-0.232521
-0.258956
-0.282818
-0.303869
-0.3219
-0.336732
-0.348218
-0.356242
-0.360726
-0.361625
-0.35893
-0.352668
-0.342901
-0.329726
-0.313274
-0.293709
-0.271224
-0.246044
-0.218419
-0.188623
-0.156952
-0.123722
-0.0892615
-0.0539142
-0.0180311
0.0180311
0.0539142
0.0892615
0.123722
0.156952
0.188623
0.218419
0.246044
0.271224
0.293709
0.313274
0.329726
0.342901
0.352668
0.35893
0.361625
0.360726
0.356242
0.348218
0.336732
0.3219
0.303869
0.282818
0.258956
0.232521
0.203774
0.173003
0.140512
0.106624
0.071677
0.0360175
0
0
-0.0270921
-0.053915
-0.080202
-0.105692
-0.130131
-0.153278
-0.174901
-0.194785
-0.212734
-0.228568
-0.242131
-0.253288
-0.261927
-0.267963
-0.271336
-0.272012
-0.269985
-0.265275
-0.257928
-0.248018
-0.235643
-0.220926
-0.204013
-0.185073
-0.164293
-0.141881
-0.118058
-0.0930626
-0.0671419
-0.0405539
-0.0135629
0.0135629
0.0405539
0.0671419
0.0930626
0.118058
0.141881
0.164293
0.185073
0.204013
0.220926
0.235643
0.248018
0.257928
0.265275
0.269985
0.272012
0.271336
0.267963
0.261927
0.253288
0.242131
0.228568
0.212734
0.194785
0.174901
0.153278
0.130131
0.105692
0.080202
0.053915
0.0270921
0
0
-0.0180436
-0.0359078
-0.0534152
-0.0703917
-0.0866686
-0.102084
-0.116485
-0.129729
-0.141683
-0.152229
-0.161262
-0.168692
-0.174446
-0.178466
-0.180712
-0.181163
-0.179812
-0.176675
-0.171782
-0.165182
-0.15694
-0.147138
-0.135874
-0.12326
-0.109421
-0.0944939
-0.0786279
-0.0619805
-0.0447171
-0.0270093
-0.00903301
0.00903301
0.0270093
0.0447171
0.0619805
0.0786279
0.0944939
0.109421
0.12326
0.135874
0.147138
0.15694
0.165182
0.171782
0.176675
0.179812
0.181163
0.180712
0.178466
0.174446
0.168692
0.161262
0.152229
0.141683
0.129729
0.116485
0.102084
0.0866686
0.0703917
0.0534152
0.0359078
0.0180436
0
0
-0.00897717
-0.0178651
-0.0265755
-0.0350218
-0.04312
-0.0507897
-0.0579546
-0.0645435
-0.070491
-0.0757379
-0.080232
-0.0839288
-0.0867915
-0.0887916
-0.0899092
-0.0901333
-0.0894616
-0.0879008
-0.0854664
-0.0821826
-0.078082
-0.0732054
-0.0676013
-0.0613253
-0.0544398
-0.0470133
-0.0391195
-0.030837
-0.022248
-0.0134378
-0.00449417
0.00449417
0.0134378
0.022248
0.030837
0.0391195
0.0470133
0.0544398
0.0613253
0.0676013
0.0732054
0.078082
0.0821826
0.0854664
0.0879008
0.0894616
0.0901333
0.0899092
0.0887916
0.0867915
0.0839288
0.080232
0.0757379
0.070491
0.0645435
0.0579546
0.0507897
0.04312
0.0350218
0.0265755
0.0178651
0.00897717
0
